<svg width="304" height="230" viewBox="0 0 304 230" fill="none" xmlns="http://www.w3.org/2000/svg">
<rect width="304" height="230" fill="white"/>
<rect width="304" height="230" rx="8" fill="#E92A00" fill-opacity="0.96"/>
<circle cx="95" cy="128" r="94" fill="#AF0606" fill-opacity="0.1"/>
<circle cx="193.5" cy="65.5" r="52.5" fill="#AF0606" fill-opacity="0.2"/>
<path d="M30.7209 199.043L34.8198 210.616L38.8967 199.043H43.2148V215H39.916V210.638L40.2448 203.109L35.9377 215H33.68L29.3838 203.12L29.7126 210.638V215H26.4247V199.043H30.7209ZM45.3848 208.961C45.3848 207.785 45.6113 206.736 46.0643 205.816C46.5173 204.895 47.1676 204.183 48.0151 203.679C48.87 203.175 49.86 202.923 50.9852 202.923C52.5853 202.923 53.8895 203.412 54.8977 204.391C55.9133 205.37 56.4796 206.7 56.5965 208.38L56.6184 209.191C56.6184 211.011 56.1106 212.472 55.095 213.575C54.0794 214.671 52.7168 215.219 51.0071 215.219C49.2974 215.219 47.9311 214.671 46.9082 213.575C45.8926 212.479 45.3848 210.989 45.3848 209.104V208.961ZM48.5521 209.191C48.5521 210.317 48.764 211.179 49.1878 211.778C49.6116 212.37 50.218 212.666 51.0071 212.666C51.7743 212.666 52.3734 212.373 52.8045 211.789C53.2355 211.197 53.4511 210.255 53.4511 208.961C53.4511 207.858 53.2355 207.003 52.8045 206.397C52.3734 205.79 51.7669 205.487 50.9852 205.487C50.2107 205.487 49.6116 205.79 49.1878 206.397C48.764 206.996 48.5521 207.927 48.5521 209.191ZM57.9445 212.446C58.6605 211.687 59.1464 210.934 59.4021 210.189C59.6578 209.443 59.8003 208.388 59.8295 207.021L59.9172 203.142H68.641V212.446H70.3507V218.562H67.1834V215H60.1583V218.562H56.9253V212.446H57.9445ZM61.6817 212.446H65.4847V205.761H63.0188L62.9969 207.186C62.9311 209.363 62.4927 211.117 61.6817 212.446ZM77.4197 215.219C75.6808 215.219 74.2633 214.686 73.1674 213.619C72.0787 212.552 71.5344 211.131 71.5344 209.356V209.049C71.5344 207.858 71.7645 206.795 72.2248 205.86C72.6851 204.917 73.3354 204.194 74.1756 203.69C75.0232 203.178 75.9876 202.923 77.069 202.923C78.691 202.923 79.9659 203.434 80.8939 204.457C81.8291 205.48 82.2967 206.93 82.2967 208.808V210.101H74.7455C74.8478 210.876 75.1547 211.497 75.6661 211.964C76.1849 212.432 76.8388 212.666 77.6279 212.666C78.8481 212.666 79.8016 212.224 80.4884 211.34L82.0446 213.082C81.5697 213.754 80.9267 214.28 80.1157 214.66C79.3047 215.033 78.406 215.219 77.4197 215.219ZM77.058 205.487C76.4297 205.487 75.9182 205.699 75.5237 206.123C75.1364 206.547 74.888 207.153 74.7784 207.942H79.1842V207.69C79.1696 206.989 78.9796 206.448 78.6143 206.068C78.2489 205.681 77.7302 205.487 77.058 205.487ZM94.418 203.142V215H91.2507V205.706H88.456L88.2587 209.367C88.1345 211.318 87.7509 212.739 87.1079 213.63C86.465 214.521 85.5078 214.978 84.2365 215H83.1625L83.1296 212.424L83.5242 212.392C84.0941 212.348 84.5105 212.012 84.7736 211.383C85.0366 210.755 85.201 209.685 85.2667 208.172L85.4859 203.142H94.418ZM100.248 206.616H102.517C103.54 206.616 104.439 206.788 105.213 207.131C105.988 207.474 106.579 207.968 106.989 208.611C107.405 209.246 107.613 209.988 107.613 210.835C107.613 212.085 107.149 213.093 106.221 213.86C105.301 214.62 104.044 215 102.451 215H97.0702V203.142H100.248V206.616ZM100.248 209.159V212.468H102.495C103.124 212.468 103.606 212.322 103.942 212.03C104.278 211.738 104.446 211.34 104.446 210.835C104.446 210.324 104.282 209.918 103.953 209.619C103.624 209.312 103.138 209.159 102.495 209.159H100.248ZM127.724 209.685C127.6 211.402 126.964 212.753 125.817 213.74C124.677 214.726 123.172 215.219 121.302 215.219C119.256 215.219 117.645 214.532 116.469 213.159C115.3 211.778 114.715 209.886 114.715 207.482V206.506C114.715 204.972 114.985 203.62 115.526 202.451C116.067 201.282 116.838 200.387 117.839 199.766C118.847 199.138 120.016 198.824 121.346 198.824C123.187 198.824 124.67 199.317 125.795 200.303C126.92 201.29 127.571 202.674 127.746 204.457H124.458C124.378 203.427 124.089 202.681 123.592 202.221C123.103 201.754 122.354 201.52 121.346 201.52C120.25 201.52 119.428 201.914 118.88 202.703C118.339 203.485 118.061 204.702 118.047 206.353V207.558C118.047 209.283 118.306 210.543 118.825 211.34C119.351 212.136 120.177 212.534 121.302 212.534C122.317 212.534 123.074 212.304 123.57 211.844C124.075 211.376 124.363 210.656 124.436 209.685H127.724ZM135.089 208.479H133.193V215H129.905V199.043H133.193V205.432H134.694L138.596 199.043H142.607L137.686 206.594L143.122 215H139.199L135.089 208.479ZM148.547 209.443H142.377V206.89H148.547V209.443ZM158.367 208.622C157.542 209.433 156.577 209.838 155.474 209.838C154.064 209.838 152.935 209.356 152.087 208.391C151.24 207.42 150.816 206.112 150.816 204.468C150.816 203.423 151.042 202.466 151.495 201.596C151.956 200.72 152.595 200.04 153.413 199.558C154.232 199.068 155.152 198.824 156.175 198.824C157.227 198.824 158.163 199.087 158.981 199.613C159.799 200.139 160.435 200.895 160.888 201.881C161.341 202.868 161.571 203.997 161.578 205.268V206.441C161.578 209.1 160.917 211.19 159.595 212.709C158.272 214.229 156.398 215.04 153.972 215.142L153.194 215.153V212.512L153.896 212.501C156.65 212.377 158.141 211.084 158.367 208.622ZM156.252 207.416C156.763 207.416 157.202 207.284 157.567 207.021C157.94 206.758 158.221 206.441 158.411 206.068V204.764C158.411 203.69 158.206 202.857 157.797 202.265C157.388 201.673 156.84 201.377 156.153 201.377C155.518 201.377 154.995 201.669 154.586 202.254C154.177 202.831 153.972 203.558 153.972 204.435C153.972 205.304 154.17 206.02 154.564 206.583C154.966 207.138 155.529 207.416 156.252 207.416ZM171.573 197.793L173.064 198.659C172.436 199.653 172.11 200.661 172.089 201.684V203.514H169.579V201.87C169.579 201.184 169.769 200.453 170.149 199.679C170.536 198.897 171.011 198.268 171.573 197.793ZM175.333 197.793L176.823 198.659C176.195 199.653 175.87 200.661 175.848 201.684V203.514H173.338V201.87C173.338 201.184 173.528 200.453 173.908 199.679C174.295 198.897 174.77 198.268 175.333 197.793ZM181.448 209.696C181.543 210.726 181.846 211.467 182.358 211.92C182.869 212.366 183.611 212.589 184.582 212.589C185.656 212.589 186.453 212.235 186.972 211.526C187.49 210.81 187.79 209.754 187.87 208.358H182.829V205.695H187.859C187.772 204.271 187.45 203.215 186.895 202.528C186.347 201.834 185.562 201.487 184.539 201.487C183.545 201.487 182.8 201.724 182.303 202.199C181.806 202.667 181.517 203.423 181.437 204.468H178.149C178.31 202.722 178.946 201.344 180.056 200.336C181.174 199.328 182.668 198.824 184.539 198.824C185.868 198.824 187.034 199.138 188.035 199.766C189.043 200.387 189.817 201.282 190.358 202.451C190.899 203.613 191.169 204.968 191.169 206.517V207.558C191.169 209.911 190.581 211.778 189.405 213.159C188.236 214.532 186.628 215.219 184.582 215.219C182.697 215.219 181.185 214.722 180.045 213.729C178.913 212.728 178.284 211.383 178.16 209.696H181.448ZM198.698 208.479H196.802V215H193.515V199.043H196.802V205.432H198.304L202.205 199.043H206.217L201.296 206.594L206.732 215H202.808L198.698 208.479ZM220.76 207.383C220.76 208.954 220.482 210.331 219.927 211.515C219.372 212.698 218.575 213.612 217.538 214.255C216.508 214.898 215.324 215.219 213.987 215.219C212.665 215.219 211.485 214.901 210.447 214.266C209.41 213.63 208.606 212.724 208.036 211.548C207.466 210.364 207.177 209.005 207.17 207.471V206.682C207.17 205.111 207.451 203.73 208.014 202.539C208.584 201.341 209.384 200.424 210.414 199.788C211.452 199.145 212.635 198.824 213.965 198.824C215.295 198.824 216.475 199.145 217.505 199.788C218.543 200.424 219.343 201.341 219.905 202.539C220.475 203.73 220.76 205.107 220.76 206.671V207.383ZM217.428 206.66C217.428 204.987 217.129 203.715 216.53 202.846C215.931 201.976 215.076 201.542 213.965 201.542C212.862 201.542 212.011 201.973 211.412 202.835C210.812 203.69 210.509 204.946 210.502 206.605V207.383C210.502 209.012 210.801 210.276 211.401 211.175C212 212.074 212.862 212.523 213.987 212.523C215.09 212.523 215.938 212.092 216.53 211.23C217.121 210.36 217.421 209.096 217.428 207.438V206.66ZM236.136 215H232.848V208.161H226.437V215H223.149V199.043H226.437V205.509H232.848V199.043H236.136V215ZM252.126 207.383C252.126 208.954 251.849 210.331 251.293 211.515C250.738 212.698 249.942 213.612 248.904 214.255C247.874 214.898 246.69 215.219 245.353 215.219C244.031 215.219 242.851 214.901 241.813 214.266C240.776 213.63 239.972 212.724 239.402 211.548C238.832 210.364 238.544 209.005 238.536 207.471V206.682C238.536 205.111 238.818 203.73 239.38 202.539C239.95 201.341 240.75 200.424 241.781 199.788C242.818 199.145 244.002 198.824 245.331 198.824C246.661 198.824 247.841 199.145 248.871 199.788C249.909 200.424 250.709 201.341 251.272 202.539C251.841 203.73 252.126 205.107 252.126 206.671V207.383ZM248.795 206.66C248.795 204.987 248.495 203.715 247.896 202.846C247.297 201.976 246.442 201.542 245.331 201.542C244.228 201.542 243.377 201.973 242.778 202.835C242.179 203.69 241.875 204.946 241.868 206.605V207.383C241.868 209.012 242.168 210.276 242.767 211.175C243.366 212.074 244.228 212.523 245.353 212.523C246.457 212.523 247.304 212.092 247.896 211.23C248.488 210.36 248.787 209.096 248.795 207.438V206.66ZM258.812 199.043L262.911 210.616L266.988 199.043H271.306V215H268.007V210.638L268.336 203.109L264.028 215H261.771L257.475 203.12L257.803 210.638V215H254.516V199.043H258.812ZM275.032 203.942L273.541 203.076C274.17 202.09 274.495 201.07 274.517 200.018V198.166H277.037V199.865C277.037 200.522 276.855 201.235 276.489 202.002C276.124 202.769 275.638 203.416 275.032 203.942ZM278.835 203.942L277.344 203.076C277.973 202.09 278.298 201.07 278.32 200.018V198.166H280.84V199.865C280.84 200.522 280.658 201.235 280.292 202.002C279.927 202.769 279.441 203.416 278.835 203.942Z" fill="white"/>
<rect x="144.132" y="143.579" width="143.964" height="47.4932" rx="8.90498" transform="rotate(-2.15518 144.132 143.579)" fill="#C40707"/>
<rect x="137.399" y="146.624" width="143.964" height="47.4932" rx="8.90498" transform="rotate(-11.5327 137.399 146.624)" fill="white"/>
<path d="M188.36 163.393L190.206 163.016L190.737 165.622L188.892 165.999L189.611 169.522L186.379 170.181L185.66 166.658L178.984 168.021L178.423 166.015L183.023 153.905L186.288 153.238L188.36 163.393ZM181.527 164.787L185.128 164.052L183.955 158.304L183.818 158.717L181.527 164.787ZM201.512 160.709L203.357 160.333L203.889 162.939L202.044 163.315L202.763 166.838L199.531 167.497L198.812 163.975L192.135 165.337L191.575 163.331L196.174 151.221L199.44 150.555L201.512 160.709ZM194.679 162.104L198.28 161.369L197.107 155.621L196.97 156.033L194.679 162.104ZM221.642 155.973C222.101 158.225 221.987 160.042 221.298 161.425C220.61 162.808 219.367 163.683 217.57 164.049C215.796 164.412 214.319 164.103 213.141 163.124C211.963 162.145 211.14 160.566 210.672 158.386L210.06 155.389C209.596 153.115 209.714 151.293 210.413 149.924C211.119 148.552 212.36 147.686 214.134 147.324C215.909 146.962 217.385 147.27 218.563 148.249C219.74 149.22 220.562 150.796 221.03 152.976L221.642 155.973ZM217.739 153.345C217.464 151.995 217.077 151.053 216.58 150.517C216.088 149.973 215.451 149.781 214.668 149.941C213.908 150.096 213.405 150.505 213.16 151.169C212.92 151.823 212.917 152.775 213.148 154.025L213.956 157.984C214.227 159.311 214.607 160.262 215.098 160.838C215.594 161.405 216.241 161.607 217.039 161.444C217.829 161.283 218.336 160.857 218.56 160.166C218.784 159.476 218.774 158.492 218.529 157.214L217.739 153.345ZM234.794 153.289C235.253 155.541 235.139 157.358 234.45 158.741C233.761 160.124 232.519 160.999 230.722 161.366C228.948 161.728 227.471 161.42 226.293 160.441C225.115 159.462 224.292 157.883 223.823 155.703L223.212 152.705C222.748 150.431 222.865 148.61 223.564 147.24C224.271 145.869 225.511 145.002 227.286 144.64C229.06 144.278 230.537 144.586 231.715 145.565C232.892 146.537 233.714 148.112 234.182 150.292L234.794 153.289ZM230.891 150.661C230.615 149.312 230.229 148.369 229.731 147.834C229.24 147.29 228.603 147.097 227.82 147.257C227.059 147.412 226.557 147.822 226.311 148.485C226.072 149.14 226.068 150.092 226.3 151.341L227.108 155.3C227.379 156.627 227.759 157.579 228.249 158.154C228.746 158.721 229.393 158.923 230.19 158.76C230.981 158.599 231.488 158.173 231.712 157.483C231.936 156.793 231.926 155.808 231.68 154.53L230.891 150.661ZM247.945 150.606C248.405 152.857 248.29 154.675 247.602 156.058C246.913 157.441 245.67 158.316 243.874 158.682C242.099 159.044 240.623 158.736 239.445 157.757C238.266 156.778 237.443 155.199 236.975 153.019L236.364 150.022C235.9 147.748 236.017 145.926 236.716 144.556C237.423 143.185 238.663 142.319 240.438 141.957C242.212 141.595 243.688 141.903 244.867 142.882C246.043 143.853 246.866 145.429 247.334 147.609L247.945 150.606ZM244.042 147.977C243.767 146.628 243.381 145.686 242.883 145.15C242.392 144.606 241.754 144.414 240.971 144.573C240.211 144.729 239.708 145.138 239.463 145.802C239.224 146.456 239.22 147.408 239.452 148.658L240.26 152.617C240.53 153.944 240.911 154.895 241.401 155.471C241.897 156.038 242.544 156.239 243.342 156.077C244.132 155.915 244.639 155.49 244.864 154.799C245.088 154.109 245.077 153.125 244.832 151.847L244.042 147.977ZM265.417 151.794L261.86 152.519L262.303 154.689L258.948 155.374L258.505 153.204L256.235 153.667L255.681 150.95L257.951 150.486L257.777 149.636L255.507 150.1L254.953 147.382L257.223 146.919L255.625 139.091L261.955 137.799C263.178 137.549 264.297 137.55 265.311 137.802C266.325 138.053 267.169 138.537 267.844 139.253C268.524 139.961 268.97 140.837 269.183 141.881C269.512 143.491 269.223 144.874 268.318 146.03C267.419 147.184 265.997 147.959 264.051 148.356L261.132 148.952L261.306 149.802L264.862 149.076L265.417 151.794ZM260.578 146.234L263.474 145.643C265.353 145.26 266.124 144.244 265.788 142.597C265.629 141.814 265.261 141.233 264.687 140.853C264.111 140.466 263.401 140.354 262.557 140.519L259.537 141.135L260.578 146.234Z" fill="black"/>
<circle cx="155.235" cy="167.221" r="5.19457" transform="rotate(-11.5327 155.235 167.221)" fill="#EA320A" stroke="#A9A9A9" stroke-width="1.48416"/>
<rect x="40.3325" y="116.271" width="97" height="31.6129" rx="6" transform="rotate(-9.68805 40.3325 116.271)" fill="#C4C4C4"/>
<path d="M71.2503 127.518L70.8717 121.918L76.527 120.953L76.7483 122.249L72.2832 123.012L72.4634 126.078C72.9499 125.667 73.5367 125.403 74.224 125.286C75.2298 125.114 76.0852 125.311 76.7904 125.878C77.4947 126.439 77.9435 127.285 78.1368 128.417C78.3309 129.555 78.1758 130.504 77.6713 131.266C77.1711 132.023 76.3702 132.495 75.2684 132.683C74.293 132.85 73.4509 132.715 72.742 132.28C72.0331 131.844 71.5542 131.156 71.3052 130.216L72.6318 129.989C72.8256 130.606 73.132 131.045 73.5511 131.307C73.9694 131.563 74.4766 131.64 75.073 131.538C75.7249 131.427 76.1974 131.118 76.4904 130.61C76.7885 130.101 76.8706 129.455 76.7369 128.672C76.6109 127.934 76.3078 127.377 75.8276 127.002C75.3516 126.62 74.78 126.486 74.1129 126.6C73.5014 126.704 73.0441 126.92 72.7411 127.248L72.4215 127.614L71.2503 127.518ZM84.8151 125.904C84.5815 126.303 84.2781 126.643 83.905 126.926C83.5369 127.207 83.1103 127.389 82.6251 127.472C81.9883 127.58 81.4057 127.519 80.8771 127.286C80.3536 127.053 79.9147 126.676 79.5603 126.154C79.2051 125.627 78.9688 125.019 78.8514 124.332C78.7255 123.594 78.751 122.906 78.928 122.267C79.1101 121.628 79.4321 121.107 79.8941 120.706C80.3561 120.304 80.9308 120.045 81.6181 119.928C82.7097 119.741 83.6388 120.004 84.4052 120.716C85.1758 121.422 85.6815 122.48 85.9222 123.89L85.9921 124.299C86.3588 126.447 86.2022 128.089 85.5222 129.224C84.8414 130.354 83.6466 131.079 81.9376 131.396L81.6647 131.443L81.4628 130.26L81.7585 130.21C82.9124 129.992 83.7505 129.539 84.2729 128.852C84.7944 128.16 84.9752 127.177 84.8151 125.904ZM82.6545 126.273C83.1245 126.193 83.5321 125.975 83.8771 125.62C84.2272 125.263 84.4569 124.857 84.5664 124.402L84.4706 123.841C84.3136 122.921 83.9863 122.207 83.4887 121.699C82.9911 121.191 82.4365 120.99 81.825 121.094C81.2084 121.199 80.7537 121.521 80.4608 122.06C80.1671 122.594 80.0862 123.248 80.2182 124.021C80.3468 124.774 80.6323 125.365 81.0748 125.794C81.5215 126.217 82.0481 126.377 82.6545 126.273ZM98.955 123.638C99.2354 125.281 99.1633 126.549 98.7386 127.444C98.314 128.338 97.5053 128.887 96.3126 129.09C95.135 129.291 94.1968 129.051 93.4979 128.37C92.7982 127.683 92.3057 126.565 92.0207 125.017L91.701 123.145C91.424 121.523 91.4987 120.269 91.9251 119.385C92.3515 118.501 93.1636 117.957 94.3613 117.752C95.549 117.549 96.4884 117.782 97.1797 118.449C97.8701 119.111 98.3583 120.235 98.6444 121.819L98.955 123.638ZM97.2251 121.96C97.0224 120.772 96.7081 119.937 96.2822 119.453C95.8555 118.964 95.2808 118.781 94.5581 118.905C93.8404 119.027 93.3635 119.387 93.1273 119.984C92.8911 120.58 92.8638 121.441 93.0452 122.564L93.4283 124.808C93.6319 126.001 93.9543 126.854 94.3954 127.366C94.8408 127.872 95.4147 128.066 96.1172 127.946C96.8095 127.828 97.2768 127.472 97.5189 126.879C97.766 126.286 97.7988 125.412 97.6173 124.257L97.2251 121.96ZM107.673 122.15C107.953 123.793 107.881 125.061 107.456 125.955C107.032 126.85 106.223 127.399 105.03 127.602C103.853 127.803 102.915 127.563 102.216 126.881C101.516 126.195 101.024 125.077 100.739 123.529L100.419 121.657C100.142 120.034 100.217 118.781 100.643 117.897C101.069 117.013 101.881 116.468 103.079 116.264C104.267 116.061 105.206 116.293 105.898 116.961C106.588 117.623 107.076 118.746 107.362 120.331L107.673 122.15ZM105.943 120.472C105.74 119.284 105.426 118.448 105 117.964C104.573 117.476 103.999 117.293 103.276 117.416C102.558 117.539 102.081 117.898 101.845 118.495C101.609 119.092 101.582 119.952 101.763 121.076L102.146 123.32C102.35 124.513 102.672 125.365 103.113 125.878C103.559 126.384 104.133 126.577 104.835 126.457C105.527 126.339 105.995 125.984 106.237 125.391C106.484 124.798 106.517 123.923 106.335 122.769L105.943 120.472ZM116.391 120.662C116.671 122.304 116.599 123.573 116.174 124.467C115.75 125.361 114.941 125.91 113.748 126.114C112.571 126.315 111.633 126.075 110.934 125.393C110.234 124.706 109.741 123.589 109.456 122.041L109.137 120.168C108.86 118.546 108.934 117.293 109.361 116.409C109.787 115.524 110.599 114.98 111.797 114.776C112.985 114.573 113.924 114.805 114.615 115.473C115.306 116.135 115.794 117.258 116.08 118.842L116.391 120.662ZM114.661 118.983C114.458 117.796 114.144 116.96 113.718 116.476C113.291 115.987 112.716 115.805 111.994 115.928C111.276 116.05 110.799 116.41 110.563 117.007C110.327 117.604 110.299 118.464 110.481 119.588L110.864 121.832C111.068 123.024 111.39 123.877 111.831 124.389C112.277 124.896 112.85 125.089 113.553 124.969C114.245 124.851 114.713 124.496 114.955 123.903C115.202 123.309 115.235 122.435 115.053 121.28L114.661 118.983ZM127.361 121.488L124.821 121.922L125.177 124.007L123.729 124.254L123.373 122.169L121.804 122.437L121.599 121.239L123.169 120.971L122.991 119.933L121.422 120.201L121.219 119.011L122.788 118.743L121.845 113.216L125.916 112.521C127.098 112.32 128.087 112.46 128.882 112.943C129.677 113.427 130.162 114.181 130.337 115.207C130.521 116.284 130.329 117.172 129.762 117.872C129.2 118.566 128.307 119.02 127.085 119.234L124.439 119.686L124.617 120.724L127.156 120.291L127.361 121.488ZM124.236 118.496L126.859 118.048C127.642 117.914 128.207 117.628 128.554 117.189C128.9 116.75 129.013 116.177 128.892 115.469C128.782 114.828 128.482 114.346 127.99 114.024C127.497 113.697 126.889 113.593 126.166 113.711L123.497 114.167L124.236 118.496Z" fill="black"/>
<path d="M55.3142 129.749C55.634 131.622 54.3561 133.414 52.445 133.74C50.5339 134.066 48.7339 132.8 48.414 130.927C48.0942 129.053 49.3722 127.262 51.2833 126.935C53.1944 126.609 54.9944 127.875 55.3142 129.749Z" fill="#EA320A" stroke="#5C5C5C"/>
<g filter="url(#filter0_d)">
<line x1="45.4337" y1="163.491" x2="141.491" y2="88.5663" stroke="#C50707" stroke-width="5" stroke-linecap="round" stroke-linejoin="round"/>
</g>
<g filter="url(#filter1_d)">
<line x1="38.0684" y1="104.244" x2="147.244" y2="133.932" stroke="#C50707" stroke-width="5" stroke-linecap="round" stroke-linejoin="round"/>
</g>
<g filter="url(#filter2_d)">
<path d="M163.948 70.2564C163.948 71.0686 163.793 71.8352 163.483 72.5562C163.172 73.268 162.748 73.8931 162.21 74.4315C161.68 74.9608 161.06 75.3806 160.348 75.6909C159.636 76.0012 158.874 76.1563 158.062 76.1563H156.091C155.817 76.1563 155.562 76.2065 155.324 76.3069C155.087 76.4073 154.877 76.5487 154.695 76.7312C154.521 76.9046 154.384 77.11 154.284 77.3472C154.183 77.5845 154.133 77.84 154.133 78.1138V80.0713H163.414V84H150.205V78.1138C150.205 77.3016 150.36 76.5396 150.67 75.8278C150.98 75.1068 151.4 74.4817 151.929 73.9524C152.468 73.414 153.093 72.9942 153.805 72.693C154.517 72.3828 155.279 72.2276 156.091 72.2276H158.062C158.336 72.2276 158.591 72.1774 158.829 72.077C159.066 71.9767 159.271 71.8398 159.445 71.6664C159.627 71.4839 159.769 71.274 159.869 71.0367C159.969 70.7903 160.019 70.5302 160.019 70.2564C160.019 69.9827 159.969 69.7271 159.869 69.4899C159.769 69.2526 159.627 69.0473 159.445 68.8739C159.271 68.6913 159.066 68.5499 158.829 68.4495C158.591 68.3491 158.336 68.2989 158.062 68.2989H151.053V64.3702H158.062C158.874 64.3702 159.636 64.5254 160.348 64.8357C161.06 65.1459 161.68 65.5703 162.21 66.1087C162.748 66.638 163.172 67.2586 163.483 67.9704C163.793 68.6822 163.948 69.4442 163.948 70.2564ZM178.13 74.1851C178.13 72.004 177.765 70.3842 177.035 69.3256C176.314 68.267 175.305 67.7377 174.009 67.7377C172.723 67.7377 171.723 68.2624 171.012 69.3119C170.3 70.3614 169.944 71.9858 169.944 74.1851C169.944 76.3662 170.3 77.986 171.012 79.0446C171.723 80.1033 172.723 80.6326 174.009 80.6326C174.657 80.6326 175.237 80.5048 175.748 80.2493C176.259 79.9846 176.688 79.5876 177.035 79.0583C177.391 78.529 177.66 77.8628 177.842 77.0598C178.034 76.2476 178.13 75.2894 178.13 74.1851ZM181.867 74.1851C181.867 76.0468 181.662 77.621 181.251 78.9078C180.84 80.1945 180.279 81.2349 179.567 82.0288C178.855 82.8228 178.02 83.3977 177.062 83.7536C176.113 84.1004 175.095 84.2738 174.009 84.2738C172.923 84.2738 171.901 84.0958 170.943 83.7399C169.994 83.3749 169.164 82.7954 168.452 82.0014C167.749 81.1984 167.192 80.158 166.782 78.8804C166.371 77.5936 166.166 76.0285 166.166 74.1851C166.166 72.3234 166.371 70.7538 166.782 69.4762C167.192 68.1894 167.749 67.1491 168.452 66.3551C169.164 65.5612 169.994 64.9862 170.943 64.6303C171.901 64.2744 172.923 64.0965 174.009 64.0965C175.095 64.0965 176.113 64.279 177.062 64.644C178.02 64.9999 178.855 65.5794 179.567 66.3825C180.279 67.1856 180.84 68.2259 181.251 69.5035C181.662 70.7812 181.867 72.3417 181.867 74.1851ZM197.979 70.2564C197.979 71.0686 197.823 71.8352 197.513 72.5562C197.203 73.268 196.779 73.8931 196.24 74.4315C195.711 74.9608 195.09 75.3806 194.378 75.6909C193.667 76.0012 192.905 76.1563 192.092 76.1563H190.121C189.847 76.1563 189.592 76.2065 189.355 76.3069C189.117 76.4073 188.907 76.5487 188.725 76.7312C188.552 76.9046 188.415 77.11 188.314 77.3472C188.214 77.5845 188.164 77.84 188.164 78.1138V80.0713H197.445V84H184.235V78.1138C184.235 77.3016 184.39 76.5396 184.7 75.8278C185.011 75.1068 185.431 74.4817 185.96 73.9524C186.498 73.414 187.123 72.9942 187.835 72.693C188.547 72.3828 189.309 72.2276 190.121 72.2276H192.092C192.366 72.2276 192.622 72.1774 192.859 72.077C193.096 71.9767 193.302 71.8398 193.475 71.6664C193.657 71.4839 193.799 71.274 193.899 71.0367C194 70.7903 194.05 70.5302 194.05 70.2564C194.05 69.9827 194 69.7271 193.899 69.4899C193.799 69.2526 193.657 69.0473 193.475 68.8739C193.302 68.6913 193.096 68.5499 192.859 68.4495C192.622 68.3491 192.366 68.2989 192.092 68.2989H185.084V64.3702H192.092C192.905 64.3702 193.667 64.5254 194.378 64.8357C195.09 65.1459 195.711 65.5703 196.24 66.1087C196.779 66.638 197.203 67.2586 197.513 67.9704C197.823 68.6822 197.979 69.4442 197.979 70.2564ZM212.16 74.1851C212.16 72.004 211.795 70.3842 211.065 69.3256C210.344 68.267 209.336 67.7377 208.04 67.7377C206.753 67.7377 205.754 68.2624 205.042 69.3119C204.33 70.3614 203.974 71.9858 203.974 74.1851C203.974 76.3662 204.33 77.986 205.042 79.0446C205.754 80.1033 206.753 80.6326 208.04 80.6326C208.688 80.6326 209.267 80.5048 209.778 80.2493C210.289 79.9846 210.718 79.5876 211.065 79.0583C211.421 78.529 211.69 77.8628 211.873 77.0598C212.064 76.2476 212.16 75.2894 212.16 74.1851ZM215.897 74.1851C215.897 76.0468 215.692 77.621 215.281 78.9078C214.871 80.1945 214.309 81.2349 213.598 82.0288C212.886 82.8228 212.051 83.3977 211.092 83.7536C210.143 84.1004 209.126 84.2738 208.04 84.2738C206.954 84.2738 205.932 84.0958 204.974 83.7399C204.024 83.3749 203.194 82.7954 202.482 82.0014C201.78 81.1984 201.223 80.158 200.812 78.8804C200.401 77.5936 200.196 76.0285 200.196 74.1851C200.196 72.3234 200.401 70.7538 200.812 69.4762C201.223 68.1894 201.78 67.1491 202.482 66.3551C203.194 65.5612 204.024 64.9862 204.974 64.6303C205.932 64.2744 206.954 64.0965 208.04 64.0965C209.126 64.0965 210.143 64.279 211.092 64.644C212.051 64.9999 212.886 65.5794 213.598 66.3825C214.309 67.1856 214.871 68.2259 215.281 69.5035C215.692 70.7812 215.897 72.3417 215.897 74.1851ZM236.468 68.9734V71.048H229.768V84H227.301V68.9734H236.468ZM252.22 76.4587C252.22 78.9444 251.584 80.8695 250.313 82.2338C249.061 83.5982 247.36 84.2803 245.211 84.2803C243.884 84.2803 242.697 83.9813 241.651 83.3832C240.623 82.7665 239.81 81.8787 239.212 80.7199C238.614 79.5425 238.315 78.1221 238.315 76.4587C238.315 73.9729 238.941 72.0572 240.193 70.7116C241.445 69.3659 243.146 68.6931 245.295 68.6931C246.66 68.6931 247.856 69.0014 248.884 69.6182C249.93 70.2163 250.743 71.0947 251.323 72.2535C251.921 73.3935 252.22 74.7953 252.22 76.4587ZM240.866 76.4587C240.866 78.2342 241.212 79.6453 241.903 80.6919C242.613 81.7198 243.735 82.2338 245.267 82.2338C246.781 82.2338 247.893 81.7198 248.603 80.6919C249.314 79.6453 249.669 78.2342 249.669 76.4587C249.669 74.6831 249.314 73.2907 248.603 72.2815C247.893 71.2722 246.772 70.7676 245.239 70.7676C243.707 70.7676 242.595 71.2722 241.903 72.2815C241.212 73.2907 240.866 74.6831 240.866 76.4587ZM267.288 68.9734V81.9254H269.474V89.2145H267.091V84H256.634V89.2145H254.279V81.9254H255.485C256.775 80.1499 257.737 78.1314 258.373 75.8699C259.027 73.5898 259.363 71.2909 259.382 68.9734H267.288ZM264.905 70.9078H261.568C261.494 72.1787 261.297 73.4963 260.98 74.8607C260.662 76.2064 260.251 77.496 259.746 78.7295C259.26 79.963 258.69 81.0283 258.036 81.9254H264.905V70.9078ZM278.11 68.7211C279.942 68.7211 281.297 69.1229 282.176 69.9266C283.054 70.7302 283.493 72.0105 283.493 73.7673V84H281.699L281.222 81.8694H281.11C280.456 82.6917 279.765 83.2991 279.036 83.6916C278.325 84.0841 277.335 84.2803 276.064 84.2803C274.7 84.2803 273.569 83.9252 272.672 83.215C271.775 82.4861 271.326 81.3554 271.326 79.8228C271.326 78.3276 271.915 77.1782 273.092 76.3746C274.27 75.5522 276.083 75.1037 278.531 75.0289L281.082 74.9448V74.0477C281.082 72.7955 280.811 71.9264 280.269 71.4405C279.727 70.9545 278.961 70.7116 277.97 70.7116C277.185 70.7116 276.438 70.833 275.728 71.076C275.017 71.3003 274.354 71.5619 273.737 71.861L272.98 70.0107C273.634 69.6556 274.41 69.3565 275.307 69.1136C276.204 68.8519 277.139 68.7211 278.11 68.7211ZM281.054 76.6549L278.839 76.739C276.97 76.8138 275.671 77.1128 274.943 77.6361C274.232 78.1594 273.877 78.8977 273.877 79.8509C273.877 80.6919 274.13 81.3087 274.634 81.7012C275.158 82.0936 275.821 82.2899 276.625 82.2899C277.896 82.2899 278.952 81.9441 279.793 81.2526C280.634 80.5424 281.054 79.4584 281.054 78.0006V76.6549Z" fill="#E9DBDB"/>
</g>
<g filter="url(#filter3_d)">
<path d="M54.0551 52H46.7421V36.7891H32.4819V52H25.1689V16.5078H32.4819V30.89H46.7421V16.5078H54.0551V52ZM93.8639 35.0583C93.8639 38.5523 93.2463 41.6156 92.0113 44.2483C90.7762 46.8809 89.0048 48.9123 86.6972 50.3424C84.4058 51.7725 81.7731 52.4875 78.7992 52.4875C75.8578 52.4875 73.2332 51.7806 70.9256 50.3668C68.6179 48.9529 66.8303 46.9378 65.5628 44.3214C64.2952 41.6887 63.6533 38.6661 63.637 35.2533V33.4982C63.637 30.0043 64.2627 26.9328 65.514 24.2839C66.7816 21.6188 68.5611 19.5793 70.8525 18.1654C73.1601 16.7353 75.7928 16.0203 78.7504 16.0203C81.7081 16.0203 84.3327 16.7353 86.624 18.1654C88.9317 19.5793 90.7112 21.6188 91.9625 24.2839C93.2301 26.9328 93.8639 29.9961 93.8639 33.4739V35.0583ZM86.4534 33.4495C86.4534 29.728 85.7871 26.9003 84.4545 24.9665C83.122 23.0326 81.2206 22.0657 78.7504 22.0657C76.2965 22.0657 74.4033 23.0245 73.0707 24.9421C71.7381 26.8435 71.0637 29.6386 71.0475 33.3276V35.0583C71.0475 38.6823 71.7138 41.4937 73.0463 43.4926C74.3789 45.4915 76.2965 46.4909 78.7992 46.4909C81.2531 46.4909 83.1382 45.5321 84.4545 43.6145C85.7709 41.6806 86.4372 38.8692 86.4534 35.1802V33.4495ZM103.421 52V16.5078H115.853C120.16 16.5078 123.426 17.3366 125.653 18.9942C127.879 20.6356 128.992 23.0488 128.992 26.234C128.992 27.9729 128.545 29.5086 127.652 30.8412C126.758 32.1575 125.515 33.1245 123.922 33.742C125.742 34.197 127.172 35.1152 128.212 36.4965C129.269 37.8779 129.797 39.568 129.797 41.5669C129.797 44.9796 128.708 47.5635 126.53 49.3186C124.353 51.0737 121.249 51.9675 117.218 52H103.421ZM110.734 36.5453V46.1253H116.999C118.722 46.1253 120.062 45.719 121.021 44.9064C121.996 44.0776 122.484 42.9401 122.484 41.4937C122.484 38.2435 120.802 36.5941 117.438 36.5453H110.734ZM110.734 31.3775H116.146C119.835 31.3125 121.679 29.8418 121.679 26.9653C121.679 25.3565 121.208 24.2027 120.266 23.5039C119.339 22.7888 117.869 22.4313 115.853 22.4313H110.734V31.3775ZM160.83 16.5078H168.167V52H160.83V28.4279L146.619 52H139.306V16.5078H146.619V40.1286L160.83 16.5078ZM207.635 52H200.322V36.7891H186.062V52H178.749V16.5078H186.062V30.89H200.322V16.5078H207.635V52ZM229.868 37.496H225.651V52H218.338V16.5078H225.651V30.7193H228.991L237.669 16.5078H246.59L235.645 33.3032L247.736 52H239.009L229.868 37.496ZM274.845 44.6871H262.023L259.585 52H251.809L265.021 16.5078H271.798L285.083 52H277.307L274.845 44.6871ZM263.997 38.7636H272.87L268.409 25.4784L263.997 38.7636Z" fill="white"/>
</g>
<defs>
<filter id="filter0_d" x="42.9336" y="86.0662" width="103.058" height="81.9251" filterUnits="userSpaceOnUse" color-interpolation-filters="sRGB">
<feFlood flood-opacity="0" result="BackgroundImageFix"/>
<feColorMatrix in="SourceAlpha" type="matrix" values="0 0 0 0 0 0 0 0 0 0 0 0 0 0 0 0 0 0 127 0"/>
<feOffset dx="1" dy="1"/>
<feGaussianBlur stdDeviation="0.5"/>
<feColorMatrix type="matrix" values="0 0 0 0 0 0 0 0 0 0 0 0 0 0 0 0 0 0 0.1 0"/>
<feBlend mode="normal" in2="BackgroundImageFix" result="effect1_dropShadow"/>
<feBlend mode="normal" in="SourceGraphic" in2="effect1_dropShadow" result="shape"/>
</filter>
<filter id="filter1_d" x="35.5677" y="101.743" width="116.176" height="36.6892" filterUnits="userSpaceOnUse" color-interpolation-filters="sRGB">
<feFlood flood-opacity="0" result="BackgroundImageFix"/>
<feColorMatrix in="SourceAlpha" type="matrix" values="0 0 0 0 0 0 0 0 0 0 0 0 0 0 0 0 0 0 127 0"/>
<feOffset dx="1" dy="1"/>
<feGaussianBlur stdDeviation="0.5"/>
<feColorMatrix type="matrix" values="0 0 0 0 0 0 0 0 0 0 0 0 0 0 0 0 0 0 0.1 0"/>
<feBlend mode="normal" in2="BackgroundImageFix" result="effect1_dropShadow"/>
<feBlend mode="normal" in="SourceGraphic" in2="effect1_dropShadow" result="shape"/>
</filter>
<filter id="filter2_d" x="148.483" y="64.0965" width="140.174" height="32.0037" filterUnits="userSpaceOnUse" color-interpolation-filters="sRGB">
<feFlood flood-opacity="0" result="BackgroundImageFix"/>
<feColorMatrix in="SourceAlpha" type="matrix" values="0 0 0 0 0 0 0 0 0 0 0 0 0 0 0 0 0 0 127 0"/>
<feOffset dx="1.72143" dy="3.44286"/>
<feGaussianBlur stdDeviation="1.72143"/>
<feColorMatrix type="matrix" values="0 0 0 0 0.9375 0 0 0 0 0.914062 0 0 0 0 0.914062 0 0 0 0.25 0"/>
<feBlend mode="normal" in2="BackgroundImageFix" result="effect1_dropShadow"/>
<feBlend mode="normal" in="SourceGraphic" in2="effect1_dropShadow" result="shape"/>
</filter>
<filter id="filter3_d" x="25.1689" y="16.0203" width="263.914" height="40.4672" filterUnits="userSpaceOnUse" color-interpolation-filters="sRGB">
<feFlood flood-opacity="0" result="BackgroundImageFix"/>
<feColorMatrix in="SourceAlpha" type="matrix" values="0 0 0 0 0 0 0 0 0 0 0 0 0 0 0 0 0 0 127 0"/>
<feOffset dx="4" dy="4"/>
<feColorMatrix type="matrix" values="0 0 0 0 0 0 0 0 0 0 0 0 0 0 0 0 0 0 0.25 0"/>
<feBlend mode="normal" in2="BackgroundImageFix" result="effect1_dropShadow"/>
<feBlend mode="normal" in="SourceGraphic" in2="effect1_dropShadow" result="shape"/>
</filter>
</defs>
</svg>
