<svg width="304" height="230" viewBox="0 0 304 230" fill="none" xmlns="http://www.w3.org/2000/svg">
<g clip-path="url(#clip0)">
<rect width="304" height="230" fill="white"/>
<path d="M0 8C0 3.58172 3.58172 0 8 0H296C300.418 0 304 3.58172 304 8V222C304 226.418 300.418 230 296 230H8.00001C3.58173 230 0 226.418 0 222V8Z" fill="#7DD16F" fill-opacity="0.96"/>
<circle cx="87" cy="150" r="100" fill="#29864E" fill-opacity="0.1"/>
<path d="M274 59.5C274 83.5244 254.524 103 230.5 103C206.476 103 187 83.5244 187 59.5C187 35.4756 206.476 16 230.5 16C254.524 16 274 35.4756 274 59.5Z" fill="#06AF17" fill-opacity="0.1"/>
<rect x="194.049" y="124.484" width="97.2566" height="47.4932" rx="8.90498" transform="rotate(-5.56021 194.049 124.484)" fill="white"/>
<path d="M222.734 132.531L219.666 132.83L219.253 134.636L217.393 134.817L219.727 126.018L221.348 125.861L225.353 134.042L223.493 134.223L222.734 132.531ZM220.001 131.367L222.123 131.16L220.747 128.086L220.001 131.367ZM228.002 131.435L227.325 131.501L227.552 133.828L225.867 133.992L225.252 127.682L226.938 127.518L227.169 129.892L227.769 129.833L228.915 127.326L231.043 127.119L229.271 130.323L231.85 133.41L229.605 133.628L228.002 131.435ZM231.871 127.038L233.557 126.874L234.039 131.825L236.15 131.62L235.668 126.668L237.359 126.504L237.842 131.467L238.787 131.375L238.984 134.605L237.415 134.758L237.233 132.886L232.486 133.348L231.871 127.038ZM242.952 125.959L244.637 125.795L245.252 132.105L243.566 132.269L243.187 128.374L241.455 132.475L239.764 132.639L239.15 126.329L240.841 126.165L241.219 130.055L242.952 125.959ZM251.186 125.158L251.801 131.468L250.121 131.631L249.909 129.45L248.842 129.554L247.841 131.853L246.132 132.019L247.268 129.419C246.874 129.28 246.559 129.072 246.324 128.792C246.093 128.513 245.959 128.182 245.922 127.801C245.862 127.191 246.049 126.668 246.481 126.234C246.918 125.795 247.531 125.529 248.323 125.436L251.186 125.158ZM248.639 128.384L249.794 128.272L249.639 126.674L248.542 126.781C248.243 126.81 248.008 126.913 247.836 127.091C247.665 127.265 247.59 127.464 247.612 127.69C247.634 127.915 247.742 128.093 247.935 128.223C248.128 128.354 248.363 128.407 248.639 128.384ZM224.249 148.216L223.928 148.247L223.345 142.258L219.444 142.638L220.027 148.627L219.712 148.658L219.097 142.348L223.635 141.906L224.249 148.216ZM230.776 144.454C230.872 145.438 230.736 146.24 230.369 146.861C230.002 147.481 229.452 147.827 228.722 147.898C228.243 147.945 227.808 147.889 227.416 147.731C227.024 147.573 226.706 147.333 226.463 147.011L226.794 150.417L226.48 150.448L225.629 141.712L225.944 141.681L226.054 142.807C226.232 142.385 226.496 142.049 226.844 141.8C227.193 141.55 227.602 141.402 228.073 141.356C228.812 141.284 229.42 141.511 229.9 142.038C230.378 142.56 230.667 143.333 230.767 144.355L230.776 144.454ZM230.444 144.363C230.356 143.457 230.106 142.767 229.695 142.293C229.287 141.815 228.759 141.607 228.109 141.67C227.581 141.722 227.145 141.904 226.803 142.216C226.46 142.524 226.232 142.942 226.118 143.471L226.406 146.422C226.611 146.842 226.91 147.154 227.303 147.359C227.7 147.56 228.164 147.635 228.697 147.583C229.342 147.52 229.819 147.215 230.126 146.667C230.434 146.119 230.54 145.351 230.444 144.363ZM232.001 144.153C231.942 143.55 232.004 142.999 232.187 142.498C232.374 141.993 232.664 141.586 233.057 141.277C233.455 140.968 233.92 140.787 234.453 140.735C234.982 140.684 235.469 140.768 235.914 140.987C236.359 141.207 236.722 141.544 237.002 142C237.285 142.455 237.458 142.982 237.52 143.58L237.548 143.86C237.607 144.467 237.545 145.02 237.362 145.521C237.179 146.021 236.889 146.426 236.491 146.736C236.097 147.045 235.634 147.225 235.102 147.277C234.569 147.329 234.078 147.243 233.628 147.02C233.183 146.797 232.82 146.459 232.541 146.008C232.261 145.552 232.09 145.027 232.028 144.433L232.001 144.153ZM232.34 144.367C232.391 144.892 232.541 145.364 232.79 145.783C233.042 146.198 233.365 146.51 233.758 146.719C234.155 146.928 234.593 147.009 235.071 146.962C235.79 146.892 236.349 146.565 236.747 145.981C237.15 145.396 237.309 144.678 237.226 143.827L237.209 143.646C237.159 143.129 237.007 142.661 236.754 142.242C236.502 141.823 236.177 141.509 235.78 141.301C235.386 141.088 234.954 141.004 234.484 141.05C233.764 141.12 233.204 141.451 232.802 142.044C232.401 142.636 232.241 143.348 232.322 144.18L232.34 144.367ZM238.687 146.493L238.88 146.174C239.375 145.336 239.597 144.171 239.546 142.676L239.445 140.367L242.833 140.037L243.417 146.032L243.918 145.983L244.129 148.153L243.814 148.183L243.634 146.329L238.554 146.823L238.735 148.678L238.478 148.703L238.267 146.533L238.687 146.493ZM239.072 146.455L243.102 146.063L242.549 140.383L239.773 140.653L239.865 142.751C239.91 144.344 239.646 145.579 239.072 146.455ZM249.365 139.401L249.979 145.711L249.658 145.742L249.075 139.753L246.054 140.047L246.219 143.01C246.266 144.14 246.191 144.94 245.993 145.41C245.8 145.881 245.441 146.145 244.917 146.204L244.695 146.226L244.665 145.916L244.928 145.891C245.323 145.837 245.592 145.601 245.736 145.182C245.883 144.764 245.941 144.083 245.908 143.14L245.72 139.756L249.365 139.401ZM255.587 138.795L255.908 138.764L256.522 145.074L256.201 145.105L255.642 139.355L252.3 145.485L251.985 145.516L251.371 139.206L251.686 139.175L252.245 144.925L255.587 138.795ZM262.319 138.464L259.841 138.705L260.424 144.694L260.109 144.725L259.526 138.736L257.175 138.965L257.144 138.644L262.288 138.143L262.319 138.464ZM265.793 143.971C266.364 143.916 266.82 143.718 267.16 143.379C267.504 143.04 267.667 142.6 267.65 142.06L267.965 142.029C267.993 142.643 267.805 143.157 267.402 143.573C266.999 143.986 266.473 144.223 265.824 144.286C265.034 144.363 264.379 144.139 263.856 143.613C263.338 143.086 263.031 142.333 262.936 141.353L262.915 141.143C262.822 140.187 262.979 139.4 263.386 138.784C263.797 138.167 264.393 137.82 265.175 137.744C265.844 137.679 266.415 137.826 266.89 138.184C267.364 138.542 267.647 139.052 267.739 139.714L267.424 139.745C267.342 139.18 267.097 138.744 266.691 138.439C266.288 138.128 265.793 138.002 265.206 138.059C264.502 138.128 263.975 138.436 263.624 138.984C263.276 139.528 263.147 140.251 263.234 141.153L263.254 141.358C263.34 142.24 263.608 142.915 264.058 143.381C264.511 143.843 265.089 144.04 265.793 143.971ZM273.508 137.051L274.122 143.361L273.808 143.391L273.552 140.767L271.243 140.992L269.918 143.77L269.545 143.806L270.878 140.998C270.416 140.968 270.037 140.805 269.741 140.508C269.446 140.211 269.274 139.818 269.226 139.328C269.173 138.78 269.315 138.32 269.651 137.95C269.992 137.579 270.481 137.357 271.117 137.284L273.508 137.051ZM269.542 139.309C269.587 139.764 269.758 140.114 270.057 140.36C270.359 140.605 270.744 140.709 271.211 140.671L273.521 140.446L273.225 137.402L271.207 137.599C270.639 137.654 270.207 137.833 269.911 138.137C269.619 138.44 269.496 138.831 269.542 139.309ZM220.668 161.259C221.009 160.818 221.229 160.392 221.326 159.982C221.424 159.572 221.445 159.003 221.39 158.275L221.235 156.206L225.878 155.754L226.36 160.705L227.269 160.616L227.586 163.871L225.901 164.035L225.716 162.139L221.978 162.503L222.162 164.399L220.442 164.566L220.125 161.312L220.668 161.259ZM222.656 161.065L224.68 160.868L224.334 157.311L223.021 157.439L223.084 158.198C223.161 159.36 223.019 160.316 222.656 161.065ZM227.684 158.704C227.623 158.078 227.689 157.508 227.882 156.995C228.076 156.482 228.385 156.069 228.81 155.757C229.238 155.444 229.752 155.259 230.351 155.201C231.202 155.118 231.922 155.311 232.509 155.779C233.1 156.248 233.47 156.926 233.619 157.814L233.673 158.245C233.767 159.213 233.573 160.017 233.09 160.656C232.606 161.292 231.909 161.654 230.999 161.743C230.09 161.831 229.334 161.61 228.733 161.08C228.136 160.55 227.789 159.783 227.691 158.78L227.684 158.704ZM229.381 158.662C229.439 159.261 229.597 159.709 229.853 160.006C230.109 160.299 230.447 160.425 230.867 160.384C231.275 160.344 231.579 160.158 231.778 159.824C231.977 159.487 232.043 158.974 231.976 158.286C231.919 157.699 231.76 157.255 231.499 156.955C231.238 156.655 230.9 156.525 230.484 156.565C230.072 156.605 229.768 156.798 229.574 157.142C229.38 157.483 229.315 157.99 229.381 158.662ZM251.468 157.625L252.698 153.143L254.809 152.937L255.423 159.247L253.738 159.411L253.361 155.539L252.228 159.558L251.096 159.669L249.244 156.005L249.615 159.813L247.93 159.977L247.315 153.667L249.409 153.463L251.468 157.625ZM260.55 158.748C260.457 158.604 260.382 158.421 260.325 158.199C259.961 158.694 259.453 158.973 258.8 159.036C258.182 159.097 257.651 158.968 257.208 158.65C256.769 158.331 256.523 157.9 256.47 157.356C256.405 156.687 256.601 156.15 257.06 155.744C257.523 155.338 258.223 155.087 259.16 154.992L259.935 154.917L259.9 154.555C259.872 154.264 259.773 154.038 259.604 153.877C259.44 153.717 259.196 153.652 258.873 153.684C258.589 153.711 258.372 153.801 258.222 153.953C258.076 154.105 258.015 154.299 258.038 154.536L256.352 154.7C256.317 154.335 256.397 153.986 256.592 153.653C256.787 153.32 257.082 153.046 257.477 152.831C257.872 152.612 258.326 152.477 258.839 152.427C259.617 152.352 260.252 152.488 260.745 152.836C261.242 153.18 261.525 153.706 261.593 154.414L261.86 157.149C261.922 157.747 262.05 158.192 262.243 158.483L262.252 158.582L260.55 158.748ZM259.042 157.712C259.29 157.688 259.515 157.611 259.714 157.481C259.913 157.348 260.054 157.183 260.137 156.987L260.031 155.902L259.401 155.964C258.558 156.046 258.137 156.381 258.139 156.97L258.143 157.069C258.164 157.279 258.254 157.445 258.415 157.567C258.576 157.688 258.785 157.737 259.042 157.712ZM268.675 154.831C268.77 155.803 268.624 156.604 268.238 157.234C267.855 157.86 267.289 158.21 266.539 158.283C265.901 158.345 265.364 158.174 264.928 157.769L265.218 160.743L263.533 160.907L262.682 152.171L264.245 152.019L264.363 152.631C264.724 152.102 265.233 151.805 265.89 151.741C266.667 151.665 267.3 151.894 267.788 152.427C268.275 152.961 268.568 153.733 268.667 154.744L268.675 154.831ZM266.978 154.873C266.921 154.286 266.772 153.843 266.531 153.545C266.293 153.246 265.977 153.116 265.58 153.154C265.051 153.206 264.707 153.443 264.549 153.867L264.8 156.451C265.047 156.847 265.434 157.019 265.963 156.967C266.768 156.889 267.106 156.191 266.978 154.873ZM274.536 152.383L272.512 152.58L272.995 157.537L271.303 157.701L270.821 152.744L268.832 152.938L268.7 151.585L274.404 151.03L274.536 152.383ZM279.433 156.91C279.34 156.766 279.266 156.583 279.209 156.361C278.845 156.855 278.336 157.134 277.683 157.198C277.065 157.258 276.534 157.129 276.091 156.811C275.652 156.493 275.406 156.062 275.353 155.517C275.288 154.849 275.485 154.312 275.944 153.906C276.407 153.5 277.106 153.249 278.043 153.154L278.819 153.078L278.783 152.717C278.755 152.425 278.656 152.199 278.488 152.039C278.323 151.879 278.079 151.814 277.757 151.845C277.473 151.873 277.256 151.963 277.106 152.115C276.96 152.266 276.898 152.461 276.921 152.698L275.236 152.862C275.2 152.497 275.28 152.147 275.475 151.814C275.671 151.481 275.966 151.207 276.361 150.992C276.755 150.773 277.209 150.639 277.723 150.589C278.5 150.513 279.136 150.65 279.629 150.998C280.125 151.342 280.408 151.868 280.477 152.576L280.743 155.311C280.805 155.909 280.933 156.354 281.126 156.645L281.136 156.744L279.433 156.91ZM277.925 155.873C278.174 155.849 278.398 155.772 278.597 155.643C278.796 155.51 278.937 155.345 279.02 155.149L278.915 154.064L278.285 154.125C277.441 154.207 277.02 154.543 277.023 155.131L277.027 155.231C277.047 155.441 277.138 155.607 277.299 155.728C277.46 155.85 277.668 155.898 277.925 155.873Z" fill="black"/>
<path d="M242.844 154.179C242.884 154.591 242.816 154.966 242.641 155.305C242.466 155.644 242.207 155.926 241.864 156.152C242.296 156.31 242.649 156.552 242.924 156.879C243.199 157.201 243.359 157.598 243.405 158.068C243.478 158.823 243.28 159.444 242.809 159.934C242.339 160.419 241.662 160.705 240.779 160.791C239.897 160.877 239.176 160.725 238.616 160.336C238.056 159.947 237.74 159.377 237.666 158.627C237.621 158.157 237.701 157.735 237.908 157.361C238.115 156.988 238.413 156.684 238.803 156.45C238.423 156.295 238.114 156.068 237.877 155.769C237.644 155.47 237.507 155.114 237.467 154.702C237.396 153.979 237.582 153.38 238.022 152.905C238.462 152.427 239.096 152.147 239.924 152.067C240.749 151.987 241.422 152.137 241.946 152.518C242.473 152.894 242.773 153.448 242.844 154.179ZM241.702 158.111C241.666 157.741 241.53 157.456 241.295 157.255C241.059 157.055 240.761 156.972 240.399 157.007C240.042 157.042 239.767 157.18 239.574 157.423C239.382 157.661 239.304 157.967 239.34 158.34C239.375 158.702 239.508 158.983 239.74 159.185C239.972 159.386 240.274 159.468 240.647 159.432C241.013 159.396 241.288 159.262 241.473 159.028C241.662 158.793 241.739 158.488 241.702 158.111ZM241.166 154.424C241.134 154.094 241.021 153.838 240.827 153.657C240.632 153.472 240.375 153.395 240.057 153.426C239.742 153.456 239.506 153.577 239.35 153.789C239.194 154 239.133 154.277 239.166 154.619C239.199 154.957 239.313 155.221 239.508 155.41C239.703 155.599 239.96 155.678 240.279 155.647C240.597 155.616 240.832 155.489 240.983 155.266C241.138 155.043 241.199 154.763 241.166 154.424Z" fill="#EE1010"/>
<path d="M42.6567 202.188H43.3013V208H42.6567V203.225L39.52 208H38.8809V202.188H39.52V206.969L42.6567 202.188ZM51.938 202.188V208H51.2935V205.658H49.4888L48.0708 208H47.3618L48.8228 205.578C48.4253 205.474 48.1156 205.273 47.8936 204.976C47.6751 204.679 47.5659 204.328 47.5659 203.923C47.5659 203.397 47.7539 202.976 48.1299 202.661C48.5094 202.346 49.0215 202.188 49.666 202.188H51.938ZM48.2104 203.934C48.2104 204.274 48.3179 204.554 48.5327 204.772C48.7511 204.99 49.0537 205.103 49.4404 205.11H51.2935V202.736H49.6499C49.2023 202.736 48.8496 202.844 48.5918 203.059C48.3376 203.273 48.2104 203.565 48.2104 203.934ZM55.9932 205.008C55.9932 204.45 56.1006 203.947 56.3154 203.499C56.5339 203.051 56.84 202.704 57.2339 202.457C57.6313 202.206 58.0807 202.081 58.582 202.081C59.3555 202.081 59.9821 202.353 60.4619 202.897C60.9417 203.438 61.1816 204.156 61.1816 205.051V205.186C61.1816 205.748 61.0724 206.254 60.854 206.706C60.6392 207.153 60.3348 207.499 59.9409 207.742C59.547 207.986 59.0977 208.107 58.5928 208.107C57.8229 208.107 57.1963 207.837 56.7129 207.296C56.2331 206.752 55.9932 206.032 55.9932 205.137V205.008ZM56.6377 205.186C56.6377 205.88 56.8167 206.451 57.1748 206.899C57.5365 207.343 58.0091 207.565 58.5928 207.565C59.1729 207.565 59.6419 207.343 60 206.899C60.3617 206.451 60.5425 205.862 60.5425 205.132V205.008C60.5425 204.564 60.4601 204.158 60.2954 203.789C60.1307 203.42 59.8997 203.136 59.6025 202.935C59.3053 202.731 58.9652 202.629 58.582 202.629C58.0091 202.629 57.5418 202.854 57.1802 203.306C56.8185 203.753 56.6377 204.34 56.6377 205.067V205.186ZM66.5688 202.736H64.4526V208H63.8081V202.736H61.7725V202.188H66.5688V202.736ZM72.0903 208H71.4458V202.742H68.3145V208H67.6699V202.188H72.0903V208ZM78.4873 205.153C78.4873 206.059 78.2868 206.779 77.8857 207.312C77.4847 207.842 76.9476 208.107 76.2744 208.107C75.4795 208.107 74.8708 207.828 74.4482 207.27V210.234H73.8091V202.188H74.4053L74.4375 203.01C74.8564 202.391 75.4634 202.081 76.2583 202.081C76.953 202.081 77.4972 202.344 77.8911 202.871C78.2886 203.397 78.4873 204.127 78.4873 205.062V205.153ZM77.8428 205.041C77.8428 204.299 77.6906 203.714 77.3862 203.284C77.0819 202.854 76.6576 202.64 76.1133 202.64C75.7194 202.64 75.381 202.735 75.0981 202.924C74.8153 203.114 74.5986 203.39 74.4482 203.751V206.539C74.6022 206.872 74.8224 207.126 75.1089 207.302C75.3953 207.477 75.7337 207.565 76.124 207.565C76.6647 207.565 77.0854 207.35 77.3862 206.92C77.6906 206.487 77.8428 205.861 77.8428 205.041ZM83.5845 208C83.52 207.817 83.4788 207.547 83.4609 207.189C83.2354 207.483 82.9471 207.71 82.5962 207.871C82.2489 208.029 81.88 208.107 81.4897 208.107C80.9312 208.107 80.4782 207.952 80.1309 207.64C79.7871 207.329 79.6152 206.935 79.6152 206.458C79.6152 205.893 79.8498 205.445 80.3188 205.116C80.7915 204.786 81.4486 204.622 82.29 204.622H83.4556V203.961C83.4556 203.546 83.3267 203.22 83.0688 202.983C82.8146 202.743 82.4422 202.624 81.9517 202.624C81.5041 202.624 81.1335 202.738 80.8398 202.967C80.5462 203.196 80.3994 203.472 80.3994 203.794L79.7549 203.789C79.7549 203.327 79.9697 202.928 80.3994 202.591C80.8291 202.251 81.3573 202.081 81.9839 202.081C82.632 202.081 83.1423 202.244 83.5146 202.57C83.8906 202.892 84.084 203.343 84.0947 203.923V206.673C84.0947 207.236 84.1538 207.656 84.272 207.936V208H83.5845ZM81.5649 207.538C81.9946 207.538 82.3778 207.434 82.7144 207.227C83.0545 207.019 83.3016 206.741 83.4556 206.394V205.116H82.3062C81.6652 205.123 81.1639 205.241 80.8022 205.47C80.4406 205.696 80.2598 206.007 80.2598 206.405C80.2598 206.731 80.3797 207.001 80.6196 207.216C80.8631 207.431 81.1782 207.538 81.5649 207.538ZM85.8833 208V202.188H88.0156C88.7533 202.188 89.319 202.321 89.7129 202.586C90.1068 202.847 90.3037 203.232 90.3037 203.741C90.3037 204.031 90.216 204.29 90.0405 204.52C89.8651 204.745 89.609 204.91 89.2725 205.014C89.652 205.085 89.9564 205.248 90.1855 205.502C90.4183 205.757 90.5347 206.052 90.5347 206.389C90.5347 206.901 90.3449 207.298 89.9653 207.581C89.5894 207.86 89.0558 208 88.3647 208H85.8833ZM86.5225 205.325V207.463H88.3862C88.8696 207.463 89.242 207.37 89.5034 207.184C89.7648 206.997 89.8955 206.729 89.8955 206.378C89.8955 206.056 89.7648 205.8 89.5034 205.61C89.242 205.42 88.8696 205.325 88.3862 205.325H86.5225ZM86.5225 204.788H88.1499C89.1597 204.774 89.6646 204.43 89.6646 203.757C89.6646 203.402 89.5249 203.145 89.2456 202.983C88.9699 202.819 88.5599 202.736 88.0156 202.736H86.5225V204.788ZM96.4375 202.188V208H95.793V202.742H93.4136L93.3115 204.917C93.2686 205.723 93.188 206.339 93.0698 206.765C92.9517 207.187 92.7762 207.499 92.5435 207.699C92.3107 207.9 92.001 208 91.6143 208H91.3672V207.431L91.5659 207.42C91.9347 207.413 92.1997 207.234 92.3608 206.883C92.522 206.532 92.6276 205.905 92.6777 205.003L92.7959 202.188H96.4375ZM98.876 204.836H100.536C100.554 204.306 100.675 203.83 100.901 203.408C101.126 202.982 101.433 202.654 101.819 202.425C102.206 202.196 102.639 202.081 103.119 202.081C103.889 202.081 104.514 202.353 104.994 202.897C105.477 203.442 105.719 204.161 105.719 205.057V205.186C105.719 205.744 105.61 206.249 105.391 206.7C105.173 207.151 104.867 207.499 104.473 207.742C104.079 207.986 103.631 208.107 103.13 208.107C102.389 208.107 101.78 207.857 101.304 207.355C100.827 206.851 100.571 206.194 100.536 205.384H98.876V208H98.2368V202.188H98.876V204.836ZM101.169 205.186C101.169 205.88 101.348 206.451 101.707 206.899C102.068 207.343 102.543 207.565 103.13 207.565C103.706 207.565 104.174 207.343 104.532 206.899C104.893 206.451 105.074 205.862 105.074 205.132V205.008C105.074 204.321 104.893 203.753 104.532 203.306C104.17 202.854 103.699 202.629 103.119 202.629C102.543 202.629 102.074 202.854 101.712 203.306C101.35 203.753 101.169 204.34 101.169 205.067V205.186ZM109.94 208V200.18H112.25C113.088 200.18 113.723 200.353 114.157 200.701C114.59 201.044 114.807 201.553 114.807 202.226C114.807 202.631 114.696 202.983 114.474 203.284C114.255 203.581 113.954 203.794 113.571 203.923C114.026 204.024 114.391 204.247 114.667 204.595C114.946 204.942 115.086 205.343 115.086 205.798C115.086 206.489 114.862 207.03 114.415 207.42C113.971 207.807 113.351 208 112.556 208H109.94ZM110.601 204.24V207.441H112.583C113.149 207.441 113.596 207.298 113.926 207.012C114.259 206.722 114.425 206.321 114.425 205.809C114.425 205.325 114.266 204.944 113.947 204.665C113.632 204.382 113.195 204.24 112.637 204.24H110.601ZM110.601 203.687H112.406C112.957 203.676 113.383 203.547 113.684 203.3C113.988 203.05 114.141 202.686 114.141 202.21C114.141 201.709 113.983 201.34 113.668 201.104C113.356 200.864 112.884 200.744 112.25 200.744H110.601V203.687ZM120.205 208C120.14 207.817 120.099 207.547 120.081 207.189C119.855 207.483 119.567 207.71 119.216 207.871C118.869 208.029 118.5 208.107 118.11 208.107C117.551 208.107 117.098 207.952 116.751 207.64C116.407 207.329 116.235 206.935 116.235 206.458C116.235 205.893 116.47 205.445 116.939 205.116C117.412 204.786 118.069 204.622 118.91 204.622H120.076V203.961C120.076 203.546 119.947 203.22 119.689 202.983C119.435 202.743 119.062 202.624 118.572 202.624C118.124 202.624 117.754 202.738 117.46 202.967C117.166 203.196 117.02 203.472 117.02 203.794L116.375 203.789C116.375 203.327 116.59 202.928 117.02 202.591C117.449 202.251 117.977 202.081 118.604 202.081C119.252 202.081 119.762 202.244 120.135 202.57C120.511 202.892 120.704 203.343 120.715 203.923V206.673C120.715 207.236 120.774 207.656 120.892 207.936V208H120.205ZM118.185 207.538C118.615 207.538 118.998 207.434 119.334 207.227C119.675 207.019 119.922 206.741 120.076 206.394V205.116H118.926C118.285 205.123 117.784 205.241 117.422 205.47C117.061 205.696 116.88 206.007 116.88 206.405C116.88 206.731 117 207.001 117.24 207.216C117.483 207.431 117.798 207.538 118.185 207.538ZM125.651 207.13L127.96 202.188H128.755V208H128.111V203.23L125.876 208H125.42L123.143 203.123V208H122.503V202.188H123.347L125.651 207.13ZM43.3013 221H42.6567V215.742H39.5254V221H38.8809V215.188H43.3013V221ZM44.6709 218.008C44.6709 217.45 44.7783 216.947 44.9932 216.499C45.2116 216.051 45.5177 215.704 45.9116 215.457C46.3091 215.206 46.7585 215.081 47.2598 215.081C48.0332 215.081 48.6598 215.353 49.1396 215.897C49.6195 216.438 49.8594 217.156 49.8594 218.051V218.186C49.8594 218.748 49.7502 219.254 49.5317 219.706C49.3169 220.153 49.0125 220.499 48.6187 220.742C48.2248 220.986 47.7754 221.107 47.2705 221.107C46.5007 221.107 45.874 220.837 45.3906 220.296C44.9108 219.752 44.6709 219.032 44.6709 218.137V218.008ZM45.3154 218.186C45.3154 218.88 45.4945 219.451 45.8525 219.899C46.2142 220.343 46.6868 220.565 47.2705 220.565C47.8506 220.565 48.3197 220.343 48.6777 219.899C49.0394 219.451 49.2202 218.862 49.2202 218.132V218.008C49.2202 217.564 49.1379 217.158 48.9731 216.789C48.8084 216.42 48.5775 216.136 48.2803 215.935C47.9831 215.731 47.6429 215.629 47.2598 215.629C46.6868 215.629 46.2196 215.854 45.8579 216.306C45.4963 216.753 45.3154 217.34 45.3154 218.067V218.186ZM50.6704 220.458L50.9551 220.087C51.4062 219.475 51.6659 218.579 51.7339 217.401L51.8359 215.188H55.2681V220.458H55.8696V222.708H55.2305V221H50.8638V222.708H50.2461L50.2515 220.458H50.6704ZM51.4116 220.458H54.6235V215.79H52.4482L52.3784 217.299C52.314 218.685 51.9917 219.738 51.4116 220.458ZM61.7832 218.153C61.7832 219.059 61.5827 219.779 61.1816 220.312C60.7806 220.842 60.2435 221.107 59.5703 221.107C58.7754 221.107 58.1667 220.828 57.7441 220.27V223.234H57.105V215.188H57.7012L57.7334 216.01C58.1523 215.391 58.7593 215.081 59.5542 215.081C60.2489 215.081 60.7931 215.344 61.187 215.871C61.5845 216.397 61.7832 217.127 61.7832 218.062V218.153ZM61.1387 218.041C61.1387 217.299 60.9865 216.714 60.6821 216.284C60.3778 215.854 59.9535 215.64 59.4092 215.64C59.0153 215.64 58.6769 215.735 58.394 215.924C58.1112 216.114 57.8945 216.39 57.7441 216.751V219.539C57.8981 219.872 58.1183 220.126 58.4048 220.302C58.6912 220.477 59.0296 220.565 59.4199 220.565C59.9606 220.565 60.3813 220.35 60.6821 219.92C60.9865 219.487 61.1387 218.861 61.1387 218.041ZM62.8574 218.008C62.8574 217.45 62.9648 216.947 63.1797 216.499C63.3981 216.051 63.7043 215.704 64.0981 215.457C64.4956 215.206 64.945 215.081 65.4463 215.081C66.2197 215.081 66.8464 215.353 67.3262 215.897C67.806 216.438 68.0459 217.156 68.0459 218.051V218.186C68.0459 218.748 67.9367 219.254 67.7183 219.706C67.5034 220.153 67.1991 220.499 66.8052 220.742C66.4113 220.986 65.9619 221.107 65.457 221.107C64.6872 221.107 64.0605 220.837 63.5771 220.296C63.0973 219.752 62.8574 219.032 62.8574 218.137V218.008ZM63.502 218.186C63.502 218.88 63.681 219.451 64.0391 219.899C64.4007 220.343 64.8734 220.565 65.457 220.565C66.0371 220.565 66.5062 220.343 66.8643 219.899C67.2259 219.451 67.4067 218.862 67.4067 218.132V218.008C67.4067 217.564 67.3244 217.158 67.1597 216.789C66.995 216.42 66.764 216.136 66.4668 215.935C66.1696 215.731 65.8294 215.629 65.4463 215.629C64.8734 215.629 64.4061 215.854 64.0444 216.306C63.6828 216.753 63.502 217.34 63.502 218.067V218.186ZM71.7197 215.575C72.4574 215.575 73.0553 215.817 73.5137 216.3C73.972 216.78 74.2012 217.417 74.2012 218.212V218.352C74.2012 218.878 74.0955 219.353 73.8843 219.775C73.6766 220.194 73.3758 220.522 72.9819 220.758C72.5916 220.991 72.1423 221.107 71.6338 221.107C70.8675 221.107 70.2463 220.853 69.77 220.345C69.2974 219.833 69.061 219.151 69.061 218.298V217.783C69.061 216.58 69.2902 215.618 69.7485 214.898C70.2069 214.179 70.8586 213.749 71.7036 213.609C72.2371 213.523 72.6113 213.407 72.8262 213.26C73.0446 213.113 73.1538 212.913 73.1538 212.659H73.707C73.707 212.959 73.6444 213.208 73.519 213.405C73.3937 213.602 73.2057 213.762 72.9551 213.883C72.7044 214.001 72.3213 214.102 71.8057 214.184C71.2148 214.277 70.7386 214.53 70.377 214.941C70.0189 215.35 69.7861 215.897 69.6787 216.585C69.9079 216.284 70.1943 216.041 70.5381 215.854C70.8854 215.668 71.2793 215.575 71.7197 215.575ZM69.7056 218.218V218.352C69.7056 219.007 69.8828 219.541 70.2373 219.953C70.5918 220.361 71.0573 220.565 71.6338 220.565C72.2139 220.565 72.6794 220.359 73.0303 219.947C73.3812 219.532 73.5566 218.988 73.5566 218.314V218.175C73.5566 217.57 73.3776 217.076 73.0195 216.692C72.665 216.309 72.1995 216.118 71.623 216.118C71.0465 216.118 70.5828 216.313 70.2319 216.703C69.881 217.09 69.7056 217.595 69.7056 218.218ZM79.8032 221H79.1587V218.336H76.0273V221H75.3828V215.188H76.0273V217.793H79.1587V215.188H79.8032V221ZM83.3696 220.076L85.0669 215.188H85.7598L83.2783 221.988L83.1494 222.289C82.8307 222.994 82.3384 223.347 81.6724 223.347C81.5184 223.347 81.3537 223.322 81.1782 223.272L81.1729 222.74L81.5059 222.772C81.821 222.772 82.0752 222.694 82.2686 222.536C82.4655 222.382 82.632 222.115 82.7681 221.736L83.0527 220.952L80.8613 215.188H81.5649L83.3696 220.076ZM87.4678 217.836H89.1274C89.1453 217.306 89.2671 216.83 89.4927 216.408C89.7183 215.982 90.0244 215.654 90.4111 215.425C90.7979 215.196 91.2311 215.081 91.7109 215.081C92.4808 215.081 93.1056 215.353 93.5854 215.897C94.0688 216.442 94.3105 217.161 94.3105 218.057V218.186C94.3105 218.744 94.2013 219.249 93.9829 219.7C93.7645 220.151 93.4583 220.499 93.0645 220.742C92.6706 220.986 92.223 221.107 91.7217 221.107C90.9805 221.107 90.3717 220.857 89.8955 220.355C89.4193 219.851 89.1632 219.194 89.1274 218.384H87.4678V221H86.8286V215.188H87.4678V217.836ZM89.7612 218.186C89.7612 218.88 89.9403 219.451 90.2983 219.899C90.66 220.343 91.1344 220.565 91.7217 220.565C92.2982 220.565 92.7655 220.343 93.1235 219.899C93.4852 219.451 93.666 218.862 93.666 218.132V218.008C93.666 217.321 93.4852 216.753 93.1235 216.306C92.7619 215.854 92.291 215.629 91.7109 215.629C91.1344 215.629 90.6654 215.854 90.3037 216.306C89.9421 216.753 89.7612 217.34 89.7612 218.067V218.186ZM102.201 215.188H102.845V221H102.201V216.225L99.064 221H98.4248V215.188H99.064V219.969L102.201 215.188ZM109.033 221H108.388V218.336H105.257V221H104.612V215.188H105.257V217.793H108.388V215.188H109.033V221ZM110.515 218.143C110.515 217.197 110.7 216.451 111.068 215.903C111.441 215.355 111.955 215.081 112.61 215.081C112.986 215.081 113.305 215.165 113.566 215.333V212.75H114.205V215.355C114.47 215.172 114.799 215.081 115.193 215.081C115.813 215.081 116.309 215.33 116.681 215.828C117.054 216.325 117.256 217.018 117.288 217.906L117.293 218.255C117.293 219.14 117.107 219.838 116.735 220.35C116.362 220.859 115.852 221.113 115.204 221.113C114.817 221.113 114.484 221.029 114.205 220.86V223.234H113.566V220.866C113.29 221.03 112.968 221.113 112.599 221.113C111.987 221.113 111.496 220.882 111.127 220.42C110.759 219.954 110.556 219.312 110.521 218.492L110.515 218.143ZM116.654 218.143C116.654 217.362 116.513 216.748 116.23 216.3C115.951 215.853 115.559 215.629 115.054 215.629C114.688 215.629 114.406 215.708 114.205 215.865V220.361C114.431 220.5 114.717 220.57 115.064 220.57C115.566 220.57 115.956 220.37 116.235 219.969C116.515 219.564 116.654 218.955 116.654 218.143ZM111.16 218.255C111.16 218.986 111.294 219.555 111.562 219.963C111.831 220.368 112.218 220.57 112.723 220.57C113.059 220.57 113.34 220.497 113.566 220.35V215.849C113.358 215.702 113.081 215.629 112.733 215.629C112.232 215.629 111.844 215.853 111.568 216.3C111.296 216.744 111.16 217.396 111.16 218.255ZM118.373 218.008C118.373 217.45 118.48 216.947 118.695 216.499C118.914 216.051 119.22 215.704 119.614 215.457C120.011 215.206 120.461 215.081 120.962 215.081C121.735 215.081 122.362 215.353 122.842 215.897C123.322 216.438 123.562 217.156 123.562 218.051V218.186C123.562 218.748 123.452 219.254 123.234 219.706C123.019 220.153 122.715 220.499 122.321 220.742C121.927 220.986 121.478 221.107 120.973 221.107C120.203 221.107 119.576 220.837 119.093 220.296C118.613 219.752 118.373 219.032 118.373 218.137V218.008ZM119.018 218.186C119.018 218.88 119.197 219.451 119.555 219.899C119.916 220.343 120.389 220.565 120.973 220.565C121.553 220.565 122.022 220.343 122.38 219.899C122.742 219.451 122.922 218.862 122.922 218.132V218.008C122.922 217.564 122.84 217.158 122.675 216.789C122.511 216.42 122.28 216.136 121.982 215.935C121.685 215.731 121.345 215.629 120.962 215.629C120.389 215.629 119.922 215.854 119.56 216.306C119.198 216.753 119.018 217.34 119.018 218.067V218.186ZM129.566 218.153C129.566 219.059 129.366 219.779 128.965 220.312C128.564 220.842 128.027 221.107 127.354 221.107C126.559 221.107 125.95 220.828 125.527 220.27V223.234H124.888V215.188H125.484L125.517 216.01C125.936 215.391 126.542 215.081 127.337 215.081C128.032 215.081 128.576 215.344 128.97 215.871C129.368 216.397 129.566 217.127 129.566 218.062V218.153ZM128.922 218.041C128.922 217.299 128.77 216.714 128.465 216.284C128.161 215.854 127.737 215.64 127.192 215.64C126.799 215.64 126.46 215.735 126.177 215.924C125.894 216.114 125.678 216.39 125.527 216.751V219.539C125.681 219.872 125.902 220.126 126.188 220.302C126.474 220.477 126.813 220.565 127.203 220.565C127.744 220.565 128.165 220.35 128.465 219.92C128.77 219.487 128.922 218.861 128.922 218.041ZM134.212 220.13L136.522 215.188H137.317V221H136.672V216.23L134.438 221H133.981L131.704 216.123V221H131.065V215.188H131.908L134.212 220.13ZM142.709 221C142.645 220.817 142.604 220.547 142.586 220.189C142.36 220.483 142.072 220.71 141.721 220.871C141.374 221.029 141.005 221.107 140.615 221.107C140.056 221.107 139.603 220.952 139.256 220.64C138.912 220.329 138.74 219.935 138.74 219.458C138.74 218.893 138.975 218.445 139.444 218.116C139.917 217.786 140.574 217.622 141.415 217.622H142.581V216.961C142.581 216.546 142.452 216.22 142.194 215.983C141.94 215.743 141.567 215.624 141.077 215.624C140.629 215.624 140.258 215.738 139.965 215.967C139.671 216.196 139.524 216.472 139.524 216.794L138.88 216.789C138.88 216.327 139.095 215.928 139.524 215.591C139.954 215.251 140.482 215.081 141.109 215.081C141.757 215.081 142.267 215.244 142.64 215.57C143.016 215.892 143.209 216.343 143.22 216.923V219.673C143.22 220.236 143.279 220.656 143.397 220.936V221H142.709ZM140.69 220.538C141.12 220.538 141.503 220.434 141.839 220.227C142.18 220.019 142.427 219.741 142.581 219.394V218.116H141.431C140.79 218.123 140.289 218.241 139.927 218.47C139.566 218.696 139.385 219.007 139.385 219.405C139.385 219.731 139.505 220.001 139.745 220.216C139.988 220.431 140.303 220.538 140.69 220.538ZM144.981 215.188H145.626V220.458H148.757V215.188H149.402V220.458H149.993L149.944 222.724H149.354V221H144.981V215.188ZM155.02 215.188H155.665V221H155.02V216.225L151.883 221H151.244V215.188H151.883V219.969L155.02 215.188ZM158.098 217.836H159.757C159.775 217.306 159.897 216.83 160.123 216.408C160.348 215.982 160.654 215.654 161.041 215.425C161.428 215.196 161.861 215.081 162.341 215.081C163.111 215.081 163.736 215.353 164.215 215.897C164.699 216.442 164.94 217.161 164.94 218.057V218.186C164.94 218.744 164.831 219.249 164.613 219.7C164.394 220.151 164.088 220.499 163.694 220.742C163.3 220.986 162.853 221.107 162.352 221.107C161.61 221.107 161.002 220.857 160.525 220.355C160.049 219.851 159.793 219.194 159.757 218.384H158.098V221H157.458V215.188H158.098V217.836ZM160.391 218.186C160.391 218.88 160.57 219.451 160.928 219.899C161.29 220.343 161.764 220.565 162.352 220.565C162.928 220.565 163.395 220.343 163.753 219.899C164.115 219.451 164.296 218.862 164.296 218.132V218.008C164.296 217.321 164.115 216.753 163.753 216.306C163.392 215.854 162.921 215.629 162.341 215.629C161.764 215.629 161.295 215.854 160.934 216.306C160.572 216.753 160.391 217.34 160.391 218.067V218.186Z" fill="white"/>
<path d="M209.571 84.3373L209.973 82.0287L212.18 71.1692L212.744 71.1192L216.982 81.406L217.811 83.6051L218.232 81.2949L220.026 70.4722L220.581 70.4229L218.222 84.421L217.649 84.4719L213.152 73.3747L212.533 71.9713L212.213 73.4581L209.897 85.1606L209.324 85.2115L204.306 71.8688L204.87 71.8187L208.732 82.1389L209.571 84.3373ZM223.866 76.0594C224.121 75.2412 224.55 74.5749 225.15 74.0607C225.751 73.5464 226.443 73.2545 227.226 73.1849C228.316 73.0881 229.154 73.3261 229.741 73.8991C230.333 74.4652 230.692 75.3708 230.819 76.6159L231.462 83.2447L230.954 83.2898L230.31 76.6422C230.198 75.5536 229.898 74.769 229.409 74.2884C228.919 73.8016 228.199 73.6004 227.246 73.685C226.369 73.763 225.639 74.1436 225.054 74.8268C224.475 75.5033 224.121 76.3429 223.99 77.3457L224.621 83.8525L224.114 83.8975L222.716 69.4756L223.223 69.4305L223.866 76.0594ZM241.224 82.3773C241.057 81.9566 240.934 81.3424 240.856 80.535C240.518 81.2216 240.019 81.7742 239.358 82.1927C238.698 82.6113 237.929 82.8595 237.052 82.9375C236.112 83.0209 235.33 82.8348 234.704 82.379C234.084 81.9163 233.735 81.275 233.655 80.455C233.565 79.5223 233.912 78.7402 234.698 78.1085C235.489 77.47 236.582 77.0824 237.978 76.9458L240.487 76.7229L240.343 75.2394C240.26 74.3881 239.927 73.7517 239.343 73.3301C238.765 72.9079 237.978 72.7411 236.982 72.8296C236.055 72.9119 235.304 73.2185 234.73 73.7494C234.156 74.2802 233.903 74.8961 233.971 75.5972L233.462 75.6235C233.382 74.7972 233.677 74.0639 234.348 73.4234C235.019 72.783 235.88 72.416 236.933 72.3225C238.029 72.2252 238.926 72.4232 239.625 72.9167C240.323 73.404 240.73 74.1444 240.845 75.138L241.315 79.9923C241.423 81.1065 241.584 81.8561 241.799 82.2411L241.807 82.3256L241.224 82.3773ZM237.004 82.4398C237.956 82.3552 238.753 82.0698 239.394 81.5835C240.042 81.0966 240.501 80.4529 240.771 79.6524L240.537 77.2393L238.188 77.448C236.734 77.5772 235.65 77.9639 234.936 78.6082C234.355 79.1333 234.098 79.7464 234.166 80.4475C234.226 81.0672 234.525 81.571 235.061 81.9589C235.598 82.3469 236.246 82.5072 237.004 82.4398ZM244.71 69.0557L244.975 71.7974L247.287 71.592L247.337 72.1085L245.025 72.3138L245.724 79.5248C245.794 80.2446 245.962 80.7664 246.227 81.0901C246.498 81.4132 246.909 81.5503 247.461 81.5013C247.736 81.4768 248.069 81.4189 248.458 81.3275L248.589 81.7988C248.389 81.8923 248.039 81.9613 247.538 82.0058C246.799 82.0715 246.25 81.9151 245.891 81.5366C245.531 81.1518 245.306 80.5185 245.214 79.6364L244.509 72.3597L242.629 72.5267L242.579 72.0103L244.459 71.8433L244.193 69.1017L244.71 69.0557ZM256.938 78.4717C256.818 77.2386 255.685 76.4933 253.537 76.2359C252.245 76.0791 251.332 75.813 250.796 75.4376C250.26 75.0559 249.956 74.4958 249.885 73.7572C249.813 73.0123 250.066 72.371 250.646 71.8334C251.232 71.2952 252.029 70.9813 253.038 70.8917C254.134 70.7943 255.04 70.979 255.755 71.4458C256.469 71.9064 256.869 72.5811 256.955 73.4699L256.439 73.5158C256.373 72.8335 256.029 72.2895 255.409 71.8838C254.788 71.478 254.014 71.3163 253.087 71.3987C252.198 71.4777 251.512 71.7344 251.029 72.1687C250.547 72.603 250.334 73.1112 250.39 73.6933C250.435 74.1502 250.567 74.5015 250.786 74.7472C251.005 74.9866 251.345 75.1932 251.804 75.3671C252.262 75.5347 252.921 75.6782 253.779 75.7977C254.637 75.9172 255.323 76.0866 255.837 76.3061C256.351 76.5256 256.736 76.8071 256.99 77.1507C257.244 77.488 257.396 77.9165 257.446 78.436C257.524 79.2372 257.258 79.9112 256.647 80.4578C256.037 81.0045 255.199 81.3252 254.134 81.4198C252.994 81.5211 252.048 81.3462 251.297 80.8953C250.551 80.4375 250.139 79.8018 250.06 78.988L250.568 78.943C250.687 79.6521 251.054 80.1814 251.669 80.5308C252.29 80.8734 253.095 81.0007 254.085 80.9128C254.993 80.8321 255.709 80.557 256.232 80.0875C256.761 79.6112 256.996 79.0726 256.938 78.4717ZM267.57 75.9172L260.871 76.5124L259.744 80.7319L259.19 80.7812L262.986 66.6554L263.606 66.6003L270.052 79.8162L269.498 79.8654L267.57 75.9172ZM261.009 75.9887L267.333 75.4268L263.355 67.2382L261.009 75.9887ZM279.285 73.9673C279.438 75.5509 279.219 76.8394 278.626 77.8327C278.034 78.8261 277.149 79.3751 275.971 79.4797C275.201 79.5481 274.5 79.4526 273.868 79.193C273.236 78.9335 272.724 78.5433 272.333 78.0225L272.864 83.5059L272.357 83.551L270.994 69.4858L271.501 69.4407L271.677 71.2529C271.965 70.577 272.39 70.0405 272.952 69.6433C273.513 69.2462 274.173 69.0139 274.931 68.9466C276.121 68.8408 277.102 69.2146 277.874 70.0678C278.644 70.9148 279.109 72.1614 279.269 73.8076L279.285 73.9673ZM278.749 73.816C278.607 72.3575 278.206 71.2442 277.544 70.4759C276.887 69.7009 276.036 69.3598 274.99 69.4528C274.138 69.5285 273.436 69.815 272.884 70.3123C272.331 70.8033 271.963 71.4736 271.78 72.3233L272.241 77.0742C272.572 77.7519 273.054 78.2584 273.687 78.5936C274.325 78.922 275.073 79.0481 275.931 78.9718C276.971 78.8794 277.739 78.3945 278.235 77.5171C278.732 76.6396 278.903 75.4059 278.749 73.816ZM289.827 73.0306C289.981 74.6143 289.761 75.9028 289.169 76.8961C288.576 77.8894 287.691 78.4384 286.514 78.543C285.743 78.6115 285.042 78.5159 284.41 78.2564C283.779 77.9968 283.267 77.6067 282.875 77.0859L283.407 82.5692L282.899 82.6143L281.536 68.5492L282.044 68.5041L282.219 70.3162C282.508 69.6403 282.933 69.1038 283.494 68.7067C284.056 68.3095 284.716 68.0773 285.474 68.0099C286.664 67.9042 287.645 68.2779 288.416 69.1312C289.187 69.9781 289.652 71.2247 289.812 72.871L289.827 73.0306ZM289.291 72.8793C289.15 71.4209 288.748 70.3075 288.086 69.5393C287.43 68.7642 286.578 68.4232 285.532 68.5161C284.68 68.5918 283.978 68.8783 283.426 69.3756C282.874 69.8666 282.506 70.537 282.323 71.3866L282.783 76.1376C283.115 76.8153 283.596 77.3217 284.229 77.6569C284.867 77.9853 285.616 78.1114 286.474 78.0352C287.514 77.9428 288.282 77.4579 288.778 76.5804C289.274 75.703 289.445 74.4693 289.291 72.8793Z" fill="black" fill-opacity="0.03"/>
<rect x="203.733" y="199.733" width="92.5333" height="20.5333" rx="7.26667" fill="#097424" stroke="#097424" stroke-width="1.46667"/>
<path d="M209.416 213H208.83V207.717H209.416V213ZM208.728 206.188C208.728 206.078 208.763 205.985 208.835 205.91C208.907 205.832 209.004 205.793 209.128 205.793C209.252 205.793 209.349 205.832 209.421 205.91C209.496 205.985 209.533 206.078 209.533 206.188C209.533 206.299 209.496 206.392 209.421 206.467C209.349 206.542 209.252 206.579 209.128 206.579C209.004 206.579 208.907 206.542 208.835 206.467C208.763 206.392 208.728 206.299 208.728 206.188ZM211.564 207.717L211.584 208.62C211.783 208.295 212.03 208.047 212.326 207.878C212.622 207.705 212.95 207.619 213.308 207.619C213.874 207.619 214.296 207.779 214.572 208.098C214.849 208.417 214.989 208.895 214.992 209.533V213H214.411V209.528C214.408 209.056 214.307 208.705 214.108 208.474C213.913 208.243 213.599 208.127 213.166 208.127C212.805 208.127 212.484 208.241 212.204 208.469C211.927 208.693 211.722 208.998 211.589 209.382V213H211.008V207.717H211.564ZM216.926 213V208.195H216.052V207.717H216.926V207.077C216.926 206.537 217.062 206.122 217.336 205.832C217.613 205.542 217.997 205.397 218.488 205.397C218.71 205.397 218.916 205.425 219.108 205.48L219.064 205.969C218.902 205.93 218.724 205.91 218.532 205.91C218.21 205.91 217.959 206.011 217.78 206.213C217.601 206.411 217.512 206.695 217.512 207.062V207.717H218.771V208.195H217.512V213H216.926ZM219.494 210.28C219.494 209.772 219.592 209.315 219.787 208.908C219.986 208.501 220.264 208.186 220.622 207.961C220.983 207.733 221.392 207.619 221.848 207.619C222.551 207.619 223.12 207.867 223.557 208.361C223.993 208.853 224.211 209.506 224.211 210.319V210.441C224.211 210.952 224.112 211.413 223.913 211.823C223.718 212.23 223.441 212.544 223.083 212.766C222.725 212.987 222.316 213.098 221.857 213.098C221.158 213.098 220.588 212.852 220.148 212.36C219.712 211.866 219.494 211.211 219.494 210.397V210.28ZM220.08 210.441C220.08 211.073 220.243 211.592 220.568 211.999C220.897 212.403 221.327 212.604 221.857 212.604C222.385 212.604 222.811 212.403 223.137 211.999C223.465 211.592 223.63 211.057 223.63 210.393V210.28C223.63 209.877 223.555 209.507 223.405 209.172C223.256 208.837 223.046 208.578 222.775 208.396C222.505 208.21 222.196 208.117 221.848 208.117C221.327 208.117 220.902 208.322 220.573 208.732C220.244 209.139 220.08 209.673 220.08 210.334V210.441ZM233.225 210.495C233.208 210.974 233.12 211.418 232.961 211.828C232.801 212.235 232.58 212.549 232.297 212.771C232.017 212.989 231.691 213.098 231.32 213.098C231.005 213.098 230.747 213.015 230.549 212.849C230.35 212.683 230.218 212.45 230.153 212.15C229.802 212.782 229.317 213.098 228.698 213.098C228.243 213.098 227.902 212.901 227.678 212.507C227.453 212.113 227.37 211.582 227.429 210.915C227.478 210.384 227.598 209.912 227.79 209.499C227.985 209.082 228.238 208.758 228.547 208.527C228.859 208.293 229.193 208.176 229.548 208.176C229.799 208.176 230.018 208.212 230.207 208.283C230.396 208.352 230.616 208.492 230.866 208.703L230.617 211.486C230.585 211.864 230.632 212.157 230.759 212.365C230.889 212.574 231.096 212.678 231.379 212.678C231.779 212.678 232.103 212.482 232.351 212.092C232.601 211.698 232.741 211.166 232.771 210.495C232.832 209.177 232.582 208.186 232.019 207.521C231.455 206.854 230.603 206.521 229.46 206.521C228.773 206.521 228.153 206.693 227.6 207.038C227.049 207.38 226.615 207.865 226.296 208.493C225.977 209.121 225.798 209.846 225.759 210.666C225.72 211.486 225.827 212.209 226.081 212.834C226.338 213.456 226.724 213.934 227.238 214.27C227.756 214.605 228.371 214.772 229.084 214.772C229.383 214.772 229.678 214.737 229.968 214.665C230.257 214.593 230.5 214.501 230.695 214.387L230.847 214.777C230.661 214.901 230.402 215.004 230.07 215.085C229.738 215.17 229.403 215.212 229.064 215.212C228.251 215.212 227.551 215.028 226.965 214.66C226.379 214.296 225.939 213.768 225.646 213.078C225.357 212.391 225.231 211.587 225.271 210.666C225.31 209.761 225.508 208.96 225.866 208.264C226.228 207.564 226.721 207.023 227.346 206.643C227.971 206.258 228.682 206.066 229.479 206.066C230.31 206.066 231.013 206.241 231.589 206.589C232.165 206.934 232.591 207.44 232.868 208.107C233.145 208.775 233.264 209.571 233.225 210.495ZM227.946 211.604C227.982 211.929 228.073 212.181 228.22 212.36C228.366 212.536 228.56 212.624 228.801 212.624C229.403 212.624 229.847 212.209 230.134 211.379L230.354 208.859C230.135 208.7 229.878 208.62 229.582 208.62C229.221 208.62 228.907 208.765 228.64 209.055C228.376 209.341 228.182 209.738 228.059 210.246C227.935 210.751 227.897 211.203 227.946 211.604ZM238.806 210.412C238.806 211.236 238.623 211.89 238.259 212.375C237.894 212.857 237.404 213.098 236.789 213.098C236.053 213.098 235.497 212.824 235.119 212.277L235.095 213H234.548V205.5H235.129V208.483C235.5 207.907 236.05 207.619 236.779 207.619C237.404 207.619 237.897 207.858 238.259 208.337C238.623 208.812 238.806 209.475 238.806 210.324V210.412ZM238.22 210.31C238.22 209.613 238.085 209.076 237.814 208.698C237.544 208.317 237.163 208.127 236.672 208.127C236.298 208.127 235.98 208.22 235.72 208.405C235.459 208.588 235.262 208.856 235.129 209.211V211.594C235.422 212.258 235.939 212.59 236.682 212.59C237.163 212.59 237.539 212.399 237.81 212.019C238.083 211.638 238.22 211.068 238.22 210.31ZM243.435 213C243.376 212.834 243.339 212.588 243.322 212.263C243.117 212.53 242.855 212.736 242.536 212.883C242.22 213.026 241.885 213.098 241.53 213.098C241.022 213.098 240.611 212.956 240.295 212.673C239.982 212.39 239.826 212.032 239.826 211.599C239.826 211.084 240.039 210.677 240.466 210.378C240.896 210.078 241.493 209.929 242.258 209.929H243.317V209.328C243.317 208.951 243.2 208.654 242.966 208.439C242.735 208.221 242.396 208.112 241.95 208.112C241.543 208.112 241.206 208.216 240.939 208.425C240.673 208.633 240.539 208.884 240.539 209.177L239.953 209.172C239.953 208.752 240.148 208.389 240.539 208.083C240.93 207.774 241.41 207.619 241.979 207.619C242.569 207.619 243.033 207.767 243.371 208.063C243.713 208.356 243.889 208.767 243.898 209.294V211.794C243.898 212.305 243.952 212.688 244.06 212.941V213H243.435ZM241.599 212.58C241.989 212.58 242.338 212.486 242.644 212.297C242.953 212.108 243.177 211.856 243.317 211.54V210.378H242.272C241.69 210.384 241.234 210.492 240.905 210.7C240.576 210.905 240.412 211.188 240.412 211.55C240.412 211.846 240.521 212.092 240.739 212.287C240.961 212.482 241.247 212.58 241.599 212.58ZM247.902 208.215C247.779 208.192 247.647 208.181 247.507 208.181C247.142 208.181 246.833 208.283 246.579 208.488C246.328 208.69 246.149 208.985 246.042 209.372V213H245.461V207.717H246.032L246.042 208.557C246.351 207.932 246.848 207.619 247.531 207.619C247.694 207.619 247.823 207.64 247.917 207.683L247.902 208.215ZM251.97 213C251.911 212.834 251.874 212.588 251.857 212.263C251.652 212.53 251.39 212.736 251.071 212.883C250.756 213.026 250.42 213.098 250.065 213.098C249.558 213.098 249.146 212.956 248.83 212.673C248.518 212.39 248.361 212.032 248.361 211.599C248.361 211.084 248.575 210.677 249.001 210.378C249.431 210.078 250.028 209.929 250.793 209.929H251.853V209.328C251.853 208.951 251.735 208.654 251.501 208.439C251.27 208.221 250.931 208.112 250.485 208.112C250.078 208.112 249.742 208.216 249.475 208.425C249.208 208.633 249.074 208.884 249.074 209.177L248.488 209.172C248.488 208.752 248.684 208.389 249.074 208.083C249.465 207.774 249.945 207.619 250.515 207.619C251.104 207.619 251.568 207.767 251.906 208.063C252.248 208.356 252.424 208.767 252.434 209.294V211.794C252.434 212.305 252.487 212.688 252.595 212.941V213H251.97ZM250.134 212.58C250.524 212.58 250.873 212.486 251.179 212.297C251.488 212.108 251.713 211.856 251.853 211.54V210.378H250.808C250.225 210.384 249.769 210.492 249.44 210.7C249.112 210.905 248.947 211.188 248.947 211.55C248.947 211.846 249.056 212.092 249.274 212.287C249.496 212.482 249.782 212.58 250.134 212.58ZM258.249 210.412C258.249 211.236 258.067 211.89 257.702 212.375C257.338 212.857 256.848 213.098 256.232 213.098C255.497 213.098 254.94 212.824 254.562 212.277L254.538 213H253.991V205.5H254.572V208.483C254.943 207.907 255.493 207.619 256.223 207.619C256.848 207.619 257.341 207.858 257.702 208.337C258.067 208.812 258.249 209.475 258.249 210.324V210.412ZM257.663 210.31C257.663 209.613 257.528 209.076 257.258 208.698C256.988 208.317 256.607 208.127 256.115 208.127C255.741 208.127 255.424 208.22 255.163 208.405C254.903 208.588 254.706 208.856 254.572 209.211V211.594C254.865 212.258 255.383 212.59 256.125 212.59C256.607 212.59 256.983 212.399 257.253 212.019C257.526 211.638 257.663 211.068 257.663 210.31ZM262.878 213C262.819 212.834 262.782 212.588 262.766 212.263C262.561 212.53 262.299 212.736 261.979 212.883C261.664 213.026 261.328 213.098 260.974 213.098C260.466 213.098 260.054 212.956 259.738 212.673C259.426 212.39 259.27 212.032 259.27 211.599C259.27 211.084 259.483 210.677 259.909 210.378C260.339 210.078 260.936 209.929 261.701 209.929H262.761V209.328C262.761 208.951 262.644 208.654 262.409 208.439C262.178 208.221 261.84 208.112 261.394 208.112C260.987 208.112 260.65 208.216 260.383 208.425C260.116 208.633 259.982 208.884 259.982 209.177L259.396 209.172C259.396 208.752 259.592 208.389 259.982 208.083C260.373 207.774 260.853 207.619 261.423 207.619C262.012 207.619 262.476 207.767 262.814 208.063C263.156 208.356 263.332 208.767 263.342 209.294V211.794C263.342 212.305 263.396 212.688 263.503 212.941V213H262.878ZM261.042 212.58C261.433 212.58 261.781 212.486 262.087 212.297C262.396 212.108 262.621 211.856 262.761 211.54V210.378H261.716C261.133 210.384 260.677 210.492 260.349 210.7C260.02 210.905 259.855 211.188 259.855 211.55C259.855 211.846 259.965 212.092 260.183 212.287C260.404 212.482 260.69 212.58 261.042 212.58ZM265.461 207.717L265.48 208.62C265.679 208.295 265.926 208.047 266.223 207.878C266.519 207.705 266.846 207.619 267.204 207.619C267.771 207.619 268.192 207.779 268.469 208.098C268.745 208.417 268.885 208.895 268.889 209.533V213H268.308V209.528C268.304 209.056 268.203 208.705 268.005 208.474C267.81 208.243 267.495 208.127 267.062 208.127C266.701 208.127 266.381 208.241 266.101 208.469C265.824 208.693 265.619 208.998 265.485 209.382V213H264.904V207.717H265.461ZM273.029 213H272.443V206.594L270.51 207.312V206.765L272.932 205.866H273.029V213ZM279.304 205.837V206.35H279.235C278.386 206.35 277.717 206.6 277.229 207.102C276.74 207.6 276.47 208.293 276.418 209.182C276.613 208.911 276.862 208.703 277.165 208.557C277.468 208.407 277.806 208.332 278.181 208.332C278.806 208.332 279.302 208.549 279.67 208.981C280.041 209.411 280.227 209.974 280.227 210.671C280.227 211.133 280.14 211.55 279.968 211.921C279.795 212.292 279.548 212.582 279.226 212.79C278.903 212.995 278.535 213.098 278.122 213.098C277.442 213.098 276.888 212.852 276.462 212.36C276.035 211.866 275.822 211.228 275.822 210.446V209.86C275.822 208.588 276.112 207.603 276.691 206.906C277.271 206.206 278.093 205.85 279.157 205.837H279.304ZM278.088 208.835C277.717 208.835 277.37 208.946 277.048 209.167C276.729 209.385 276.516 209.663 276.408 210.002V210.5C276.408 211.118 276.566 211.623 276.882 212.014C277.201 212.404 277.614 212.6 278.122 212.6C278.578 212.6 278.946 212.419 279.226 212.058C279.509 211.696 279.65 211.241 279.65 210.69C279.65 210.131 279.509 209.681 279.226 209.343C278.946 209.004 278.566 208.835 278.088 208.835ZM281.442 212.648C281.442 212.535 281.478 212.438 281.55 212.36C281.625 212.279 281.727 212.238 281.857 212.238C281.988 212.238 282.09 212.279 282.165 212.36C282.24 212.438 282.277 212.535 282.277 212.648C282.277 212.762 282.24 212.857 282.165 212.932C282.09 213.003 281.988 213.039 281.857 213.039C281.727 213.039 281.625 213.003 281.55 212.932C281.478 212.857 281.442 212.762 281.442 212.648ZM286.33 208.215C286.206 208.192 286.075 208.181 285.935 208.181C285.57 208.181 285.261 208.283 285.007 208.488C284.756 208.69 284.577 208.985 284.47 209.372V213H283.889V207.717H284.46L284.47 208.557C284.779 207.932 285.275 207.619 285.959 207.619C286.122 207.619 286.25 207.64 286.345 207.683L286.33 208.215ZM290.656 212.331C290.305 212.842 289.743 213.098 288.972 213.098C288.409 213.098 287.98 212.935 287.688 212.609C287.395 212.281 287.245 211.796 287.238 211.154V207.717H287.819V211.081C287.819 212.087 288.226 212.59 289.04 212.59C289.886 212.59 290.422 212.24 290.646 211.54V207.717H291.232V213H290.666L290.656 212.331Z" fill="white"/>
<rect x="72.7333" y="125.733" width="92.5333" height="20.5333" rx="7.26667" fill="#097424" stroke="#097424" stroke-width="1.46667"/>
<path d="M82.7227 132.403H80.2861V139H79.6855V132.403H77.2539V131.891H82.7227V132.403ZM85.2959 139.098C84.8467 139.098 84.4398 138.987 84.0752 138.766C83.7139 138.544 83.4323 138.237 83.2305 137.843C83.0286 137.446 82.9277 137.001 82.9277 136.51V136.3C82.9277 135.792 83.0254 135.335 83.2207 134.928C83.4193 134.521 83.6943 134.202 84.0459 133.971C84.3975 133.736 84.7783 133.619 85.1885 133.619C85.8298 133.619 86.3376 133.839 86.7119 134.278C87.0895 134.715 87.2783 135.312 87.2783 136.07V136.397H83.5088V136.51C83.5088 137.109 83.6797 137.608 84.0215 138.009C84.3665 138.406 84.7995 138.604 85.3203 138.604C85.6328 138.604 85.9079 138.548 86.1455 138.434C86.3864 138.32 86.6045 138.137 86.7998 137.887L87.166 138.165C86.7363 138.787 86.113 139.098 85.2959 139.098ZM85.1885 134.117C84.749 134.117 84.3779 134.278 84.0752 134.601C83.7757 134.923 83.5934 135.356 83.5283 135.899H86.6973V135.836C86.681 135.328 86.5361 134.915 86.2627 134.596C85.9893 134.277 85.6312 134.117 85.1885 134.117ZM89.0703 139H88.4844V131.5H89.0703V139ZM92.708 139.098C92.2588 139.098 91.8519 138.987 91.4873 138.766C91.126 138.544 90.8444 138.237 90.6426 137.843C90.4408 137.446 90.3398 137.001 90.3398 136.51V136.3C90.3398 135.792 90.4375 135.335 90.6328 134.928C90.8314 134.521 91.1064 134.202 91.458 133.971C91.8096 133.736 92.1904 133.619 92.6006 133.619C93.2419 133.619 93.7497 133.839 94.124 134.278C94.5016 134.715 94.6904 135.312 94.6904 136.07V136.397H90.9209V136.51C90.9209 137.109 91.0918 137.608 91.4336 138.009C91.7786 138.406 92.2116 138.604 92.7324 138.604C93.0449 138.604 93.32 138.548 93.5576 138.434C93.7985 138.32 94.0166 138.137 94.2119 137.887L94.5781 138.165C94.1484 138.787 93.5251 139.098 92.708 139.098ZM92.6006 134.117C92.1611 134.117 91.79 134.278 91.4873 134.601C91.1878 134.923 91.0055 135.356 90.9404 135.899H94.1094V135.836C94.0931 135.328 93.9482 134.915 93.6748 134.596C93.4014 134.277 93.0433 134.117 92.6006 134.117ZM95.5938 136.31C95.5938 135.483 95.776 134.828 96.1406 134.347C96.5085 133.862 97.0065 133.619 97.6348 133.619C98.3542 133.619 98.901 133.906 99.2754 134.479L99.3047 133.717H99.8516V138.893C99.8516 139.573 99.6611 140.112 99.2803 140.509C98.8994 140.906 98.3835 141.104 97.7324 141.104C97.3646 141.104 97.013 141.021 96.6777 140.855C96.3457 140.693 96.0837 140.475 95.8916 140.201L96.2188 139.85C96.6322 140.357 97.1237 140.611 97.6934 140.611C98.1816 140.611 98.5625 140.466 98.8359 140.177C99.1094 139.89 99.251 139.492 99.2607 138.98V138.316C98.8864 138.837 98.3411 139.098 97.625 139.098C97.013 139.098 96.5215 138.854 96.1504 138.365C95.7793 137.877 95.5938 137.218 95.5938 136.388V136.31ZM96.1846 136.412C96.1846 137.086 96.3197 137.618 96.5898 138.009C96.86 138.396 97.2409 138.59 97.7324 138.59C98.4518 138.59 98.9613 138.268 99.2607 137.623V135.167C99.124 134.828 98.9271 134.571 98.6699 134.396C98.4128 134.216 98.1035 134.127 97.7422 134.127C97.2507 134.127 96.8682 134.321 96.5947 134.708C96.3213 135.092 96.1846 135.66 96.1846 136.412ZM103.816 134.215C103.693 134.192 103.561 134.181 103.421 134.181C103.056 134.181 102.747 134.283 102.493 134.488C102.243 134.69 102.063 134.985 101.956 135.372V139H101.375V133.717H101.946L101.956 134.557C102.265 133.932 102.762 133.619 103.445 133.619C103.608 133.619 103.737 133.64 103.831 133.683L103.816 134.215ZM107.884 139C107.825 138.834 107.788 138.588 107.771 138.263C107.566 138.53 107.304 138.736 106.985 138.883C106.67 139.026 106.334 139.098 105.979 139.098C105.472 139.098 105.06 138.956 104.744 138.673C104.432 138.39 104.275 138.032 104.275 137.599C104.275 137.084 104.489 136.677 104.915 136.378C105.345 136.078 105.942 135.929 106.707 135.929H107.767V135.328C107.767 134.951 107.649 134.654 107.415 134.439C107.184 134.221 106.845 134.112 106.399 134.112C105.993 134.112 105.656 134.216 105.389 134.425C105.122 134.633 104.988 134.884 104.988 135.177L104.402 135.172C104.402 134.752 104.598 134.389 104.988 134.083C105.379 133.774 105.859 133.619 106.429 133.619C107.018 133.619 107.482 133.767 107.82 134.063C108.162 134.356 108.338 134.767 108.348 135.294V137.794C108.348 138.305 108.401 138.688 108.509 138.941V139H107.884ZM106.048 138.58C106.438 138.58 106.787 138.486 107.093 138.297C107.402 138.108 107.627 137.856 107.767 137.54V136.378H106.722C106.139 136.384 105.683 136.492 105.354 136.7C105.026 136.905 104.861 137.188 104.861 137.55C104.861 137.846 104.97 138.092 105.188 138.287C105.41 138.482 105.696 138.58 106.048 138.58ZM110.442 133.717L110.462 134.576C110.657 134.257 110.901 134.018 111.194 133.858C111.487 133.699 111.813 133.619 112.171 133.619C113.004 133.619 113.533 133.961 113.758 134.645C113.947 134.316 114.199 134.063 114.515 133.888C114.83 133.709 115.179 133.619 115.56 133.619C116.692 133.619 117.27 134.238 117.293 135.475V139H116.707V135.519C116.704 135.047 116.601 134.697 116.399 134.469C116.201 134.241 115.875 134.127 115.423 134.127C115.003 134.133 114.648 134.27 114.358 134.537C114.069 134.801 113.908 135.123 113.875 135.504V139H113.289V135.475C113.286 135.022 113.178 134.685 112.967 134.464C112.758 134.239 112.436 134.127 112 134.127C111.632 134.127 111.316 134.233 111.053 134.444C110.789 134.653 110.594 134.964 110.467 135.377V139H109.881V133.717H110.442Z" fill="white"/>
<rect x="72.7333" y="99.7333" width="92.5333" height="20.5333" rx="7.26667" fill="#097424" stroke="#097424" stroke-width="1.46667"/>
<path d="M80.042 112.121L80.0811 112.272L80.125 112.121L82.3613 105.891H83.0205L80.374 113H79.7979L77.1514 105.891H77.8057L80.042 112.121ZM84.5879 113H84.002V107.717H84.5879V113ZM83.8994 106.188C83.8994 106.078 83.9352 105.985 84.0068 105.91C84.0785 105.832 84.1761 105.793 84.2998 105.793C84.4235 105.793 84.5212 105.832 84.5928 105.91C84.6676 105.985 84.7051 106.078 84.7051 106.188C84.7051 106.299 84.6676 106.392 84.5928 106.467C84.5212 106.542 84.4235 106.579 84.2998 106.579C84.1761 106.579 84.0785 106.542 84.0068 106.467C83.9352 106.392 83.8994 106.299 83.8994 106.188ZM90.4326 110.412C90.4326 111.236 90.2503 111.89 89.8857 112.375C89.5212 112.857 89.0312 113.098 88.416 113.098C87.6803 113.098 87.1237 112.824 86.7461 112.277L86.7217 113H86.1748V105.5H86.7559V108.483C87.127 107.907 87.6771 107.619 88.4062 107.619C89.0312 107.619 89.5244 107.858 89.8857 108.337C90.2503 108.812 90.4326 109.475 90.4326 110.324V110.412ZM89.8467 110.31C89.8467 109.613 89.7116 109.076 89.4414 108.698C89.1712 108.317 88.7904 108.127 88.2988 108.127C87.9245 108.127 87.6071 108.22 87.3467 108.405C87.0863 108.588 86.8893 108.856 86.7559 109.211V111.594C87.0488 112.258 87.5664 112.59 88.3086 112.59C88.7904 112.59 89.1663 112.399 89.4365 112.019C89.71 111.638 89.8467 111.068 89.8467 110.31ZM93.7725 113.098C93.3232 113.098 92.9163 112.987 92.5518 112.766C92.1904 112.544 91.9089 112.237 91.707 111.843C91.5052 111.446 91.4043 111.001 91.4043 110.51V110.3C91.4043 109.792 91.502 109.335 91.6973 108.928C91.8958 108.521 92.1709 108.202 92.5225 107.971C92.874 107.736 93.2549 107.619 93.665 107.619C94.3063 107.619 94.8141 107.839 95.1885 108.278C95.5661 108.715 95.7549 109.312 95.7549 110.07V110.397H91.9854V110.51C91.9854 111.109 92.1562 111.608 92.498 112.009C92.8431 112.406 93.276 112.604 93.7969 112.604C94.1094 112.604 94.3844 112.548 94.6221 112.434C94.863 112.32 95.0811 112.137 95.2764 111.887L95.6426 112.165C95.2129 112.787 94.5895 113.098 93.7725 113.098ZM93.665 108.117C93.2256 108.117 92.8545 108.278 92.5518 108.601C92.2523 108.923 92.07 109.356 92.0049 109.899H95.1738V109.836C95.1576 109.328 95.0127 108.915 94.7393 108.596C94.4658 108.277 94.1077 108.117 93.665 108.117ZM99.334 108.215C99.2103 108.192 99.0785 108.181 98.9385 108.181C98.5739 108.181 98.2646 108.283 98.0107 108.488C97.7601 108.69 97.5811 108.985 97.4736 109.372V113H96.8926V107.717H97.4639L97.4736 108.557C97.7829 107.932 98.2793 107.619 98.9629 107.619C99.1257 107.619 99.2542 107.64 99.3486 107.683L99.334 108.215Z" fill="white"/>
<rect x="72.7333" y="73.7333" width="92.5333" height="20.5333" rx="7.26667" fill="#097424" stroke="#097424" stroke-width="1.46667"/>
<path d="M79.2119 85.0811L79.4316 86.1846L79.7002 85.1299L81.2432 79.8906H81.7852L83.3086 85.1299L83.5723 86.1943L83.8066 85.0811L85.0908 79.8906H85.7061L83.8848 87H83.3086L81.6973 81.4385L81.5166 80.7354L81.3408 81.4385L79.6904 87H79.1143L77.2979 79.8906H77.9131L79.2119 85.0811ZM87.3076 82.6104C87.4997 82.2946 87.7454 82.0505 88.0449 81.8779C88.3444 81.7054 88.6715 81.6191 89.0264 81.6191C89.5928 81.6191 90.0143 81.7786 90.291 82.0977C90.5677 82.4167 90.7077 82.8952 90.7109 83.5332V87H90.1299V83.5283C90.1266 83.0563 90.0257 82.7048 89.8271 82.4736C89.6318 82.2425 89.3177 82.127 88.8848 82.127C88.5234 82.127 88.2028 82.2409 87.9229 82.4688C87.6462 82.6934 87.4411 82.9977 87.3076 83.3818V87H86.7266V79.5H87.3076V82.6104ZM95.5498 87C95.4912 86.834 95.4538 86.5882 95.4375 86.2627C95.2324 86.5296 94.9704 86.7363 94.6514 86.8828C94.3356 87.026 94.0003 87.0977 93.6455 87.0977C93.1377 87.0977 92.7259 86.9561 92.4102 86.6729C92.0977 86.3896 91.9414 86.0316 91.9414 85.5986C91.9414 85.0843 92.1546 84.6774 92.5811 84.3779C93.0107 84.0785 93.6081 83.9287 94.373 83.9287H95.4326V83.3281C95.4326 82.9505 95.3154 82.6543 95.0811 82.4395C94.8499 82.2214 94.5114 82.1123 94.0654 82.1123C93.6585 82.1123 93.3216 82.2165 93.0547 82.4248C92.7878 82.6331 92.6543 82.8838 92.6543 83.1768L92.0684 83.1719C92.0684 82.752 92.2637 82.389 92.6543 82.083C93.0449 81.7738 93.5251 81.6191 94.0947 81.6191C94.6839 81.6191 95.1478 81.7673 95.4863 82.0635C95.8281 82.3564 96.0039 82.7666 96.0137 83.2939V85.7939C96.0137 86.305 96.0674 86.6875 96.1748 86.9414V87H95.5498ZM93.7139 86.5801C94.1045 86.5801 94.4528 86.4857 94.7588 86.2969C95.068 86.1081 95.2926 85.8558 95.4326 85.54V84.3779H94.3877C93.805 84.3844 93.3493 84.4919 93.0205 84.7002C92.6917 84.9053 92.5273 85.1885 92.5273 85.5498C92.5273 85.846 92.6364 86.0918 92.8545 86.2871C93.0758 86.4824 93.3623 86.5801 93.7139 86.5801ZM98.4844 80.3643V81.7168H99.5781V82.1953H98.4844V85.7158C98.4844 86.0088 98.5365 86.2269 98.6406 86.3701C98.748 86.5133 98.9255 86.585 99.1729 86.585C99.2705 86.585 99.4284 86.5687 99.6465 86.5361L99.6709 87.0146C99.5179 87.07 99.3096 87.0977 99.0459 87.0977C98.6455 87.0977 98.3542 86.9821 98.1719 86.751C97.9896 86.5166 97.8984 86.1732 97.8984 85.7207V82.1953H96.9268V81.7168H97.8984V80.3643H98.4844ZM103.953 85.6572C103.953 85.3675 103.836 85.1348 103.602 84.959C103.37 84.7832 103.021 84.6465 102.552 84.5488C102.083 84.4479 101.718 84.334 101.458 84.207C101.201 84.0768 101.009 83.9189 100.882 83.7334C100.758 83.5479 100.696 83.3232 100.696 83.0596C100.696 82.6429 100.87 82.2995 101.219 82.0293C101.567 81.7559 102.013 81.6191 102.557 81.6191C103.146 81.6191 103.618 81.7656 103.973 82.0586C104.331 82.3483 104.51 82.7275 104.51 83.1963H103.924C103.924 82.887 103.794 82.6299 103.533 82.4248C103.276 82.2197 102.951 82.1172 102.557 82.1172C102.173 82.1172 101.863 82.2035 101.629 82.376C101.398 82.5452 101.282 82.7666 101.282 83.04C101.282 83.3037 101.378 83.5088 101.57 83.6553C101.766 83.7985 102.119 83.9303 102.63 84.0508C103.144 84.1712 103.528 84.2998 103.782 84.4365C104.039 84.5732 104.23 84.7376 104.354 84.9297C104.477 85.1217 104.539 85.3545 104.539 85.6279C104.539 86.0739 104.358 86.4303 103.997 86.6973C103.639 86.9642 103.17 87.0977 102.591 87.0977C101.976 87.0977 101.476 86.9495 101.092 86.6533C100.711 86.3538 100.521 85.9762 100.521 85.5205H101.106C101.129 85.8623 101.272 86.1292 101.536 86.3213C101.803 86.5101 102.155 86.6045 102.591 86.6045C102.998 86.6045 103.326 86.515 103.577 86.3359C103.828 86.1569 103.953 85.9307 103.953 85.6572ZM109.832 85.0078H106.604L105.872 87H105.242L107.933 79.8906H108.504L111.194 87H110.569L109.832 85.0078ZM106.79 84.4951H109.642L108.216 80.623L106.79 84.4951ZM116.355 84.4121C116.355 85.2357 116.173 85.89 115.809 86.375C115.444 86.8568 114.956 87.0977 114.344 87.0977C113.621 87.0977 113.068 86.8438 112.684 86.3359V89.0312H112.103V81.7168H112.645L112.674 82.4639C113.055 81.9007 113.606 81.6191 114.329 81.6191C114.961 81.6191 115.455 81.8584 115.813 82.3369C116.175 82.8154 116.355 83.4795 116.355 84.3291V84.4121ZM115.77 84.3096C115.77 83.6357 115.631 83.1035 115.354 82.7129C115.078 82.3223 114.692 82.127 114.197 82.127C113.839 82.127 113.532 82.2132 113.274 82.3857C113.017 82.5583 112.82 82.8089 112.684 83.1377V85.6719C112.824 85.9746 113.024 86.2057 113.284 86.3652C113.545 86.5247 113.852 86.6045 114.207 86.6045C114.699 86.6045 115.081 86.4092 115.354 86.0186C115.631 85.6247 115.77 85.055 115.77 84.3096ZM121.902 84.4121C121.902 85.2357 121.72 85.89 121.355 86.375C120.991 86.8568 120.503 87.0977 119.891 87.0977C119.168 87.0977 118.615 86.8438 118.23 86.3359V89.0312H117.649V81.7168H118.191L118.221 82.4639C118.602 81.9007 119.153 81.6191 119.876 81.6191C120.507 81.6191 121.002 81.8584 121.36 82.3369C121.722 82.8154 121.902 83.4795 121.902 84.3291V84.4121ZM121.316 84.3096C121.316 83.6357 121.178 83.1035 120.901 82.7129C120.625 82.3223 120.239 82.127 119.744 82.127C119.386 82.127 119.078 82.2132 118.821 82.3857C118.564 82.5583 118.367 82.8089 118.23 83.1377V85.6719C118.37 85.9746 118.571 86.2057 118.831 86.3652C119.091 86.5247 119.399 86.6045 119.754 86.6045C120.245 86.6045 120.628 86.4092 120.901 86.0186C121.178 85.6247 121.316 85.055 121.316 84.3096Z" fill="white"/>
<circle cx="61.9575" cy="84.9575" r="5.19457" transform="rotate(0.20168 61.9575 84.9575)" fill="#EA320A" stroke="#A9A9A9" stroke-width="1.48416"/>
<circle cx="61.9575" cy="109.958" r="5.19457" transform="rotate(0.20168 61.9575 109.958)" fill="#EA320A" stroke="#A9A9A9" stroke-width="1.48416"/>
<circle cx="61.9575" cy="135.958" r="5.19457" transform="rotate(0.20168 61.9575 135.958)" fill="#EA320A" stroke="#A9A9A9" stroke-width="1.48416"/>
<path d="M28.2537 63.0272L26.3749 63.021L26.3878 59.113L22.7241 59.1009L22.7111 63.0088L20.8323 63.0026L20.8625 53.884L22.7413 53.8902L22.7291 57.5853L26.3928 57.5974L26.405 53.9024L28.2839 53.9086L28.2537 63.0272ZM33.7086 63.0452C33.6256 62.8821 33.5657 62.6794 33.529 62.4371C33.0889 62.9242 32.5182 63.1666 31.8168 63.1642C31.1529 63.162 30.6024 62.9682 30.1653 62.5826C29.7324 62.197 29.5169 61.712 29.5188 61.1275C29.5212 60.4093 29.7881 59.8591 30.3196 59.4767C30.8553 59.0944 31.6263 58.9028 32.6325 58.9019L33.4655 58.9047L33.4668 58.5164C33.4678 58.2033 33.3872 57.9525 33.225 57.7641C33.067 57.5757 32.8147 57.4809 32.4681 57.4797C32.1634 57.4787 31.923 57.551 31.7472 57.6965C31.5755 57.8421 31.4893 58.0422 31.4884 58.2969L29.6785 58.2909C29.6798 57.8985 29.8021 57.5356 30.0453 57.2024C30.2886 56.8692 30.6318 56.6094 31.075 56.423C31.5182 56.2324 32.0154 56.138 32.5665 56.1398C33.4016 56.1426 34.0626 56.3556 34.5497 56.7789C35.041 57.1981 35.2854 57.7876 35.2829 58.5475L35.2732 61.4847C35.2752 62.1277 35.3634 62.6144 35.5376 62.9448L35.5373 63.0513L33.7086 63.0452ZM32.2159 61.7815C32.4831 61.7823 32.7297 61.7247 32.9555 61.6086C33.1814 61.4882 33.3489 61.328 33.4581 61.128L33.462 59.9631L32.7856 59.9609C31.8796 59.9579 31.3963 60.2694 31.3358 60.8955L31.3292 61.0019C31.3284 61.2274 31.4071 61.4135 31.5653 61.5601C31.7235 61.7068 31.9404 61.7806 32.2159 61.7815ZM42.5516 63.0745L40.7354 63.0685L40.753 57.7577L38.4858 57.7502L38.4683 63.061L36.6583 63.055L36.6808 56.2787L42.574 56.2982L42.5516 63.0745ZM48.0414 56.3163L49.8514 56.3223L49.8289 63.0986L48.019 63.0926L48.0328 58.9091L45.7519 63.0851L43.9357 63.0791L43.9581 56.3028L45.7743 56.3088L45.7605 60.486L48.0414 56.3163ZM53.0454 56.3328L53.0278 61.6499L54.8878 61.6561L54.9054 56.339L56.7216 56.345L56.704 61.6621L58.5641 61.6683L58.5817 56.3512L60.3916 56.3571L60.3692 63.1335L51.213 63.1032L51.2354 56.3268L53.0454 56.3328ZM65.9279 56.3755L67.7379 56.3815L67.7154 63.1578L65.9055 63.1518L65.9193 58.9683L63.6384 63.1443L61.8222 63.1383L61.8446 56.362L63.6608 56.368L63.647 60.5452L65.9279 56.3755ZM74.7411 57.8576L72.5679 57.8504L72.5503 63.1738L70.7341 63.1678L70.7517 57.8444L68.6161 57.8373L68.6209 56.3844L74.7459 56.4047L74.7411 57.8576ZM78.3555 63.3183C77.3618 63.315 76.5528 63.0075 75.9285 62.3958C75.3085 61.7842 75.0001 60.9711 75.0035 59.9565L75.004 59.7812C75.0063 59.1006 75.1398 58.4936 75.4046 57.96C75.6694 57.4223 76.0424 57.0102 76.5235 56.7237C77.0088 56.433 77.5604 56.2887 78.1783 56.2908C79.1052 56.2938 79.8328 56.5885 80.3611 57.1748C80.8936 57.7611 81.1581 58.5907 81.1545 59.6638L81.1521 60.4028L76.837 60.3885C76.894 60.8312 77.0682 61.1867 77.3596 61.4549C77.6551 61.7231 78.0284 61.8579 78.4793 61.8594C79.1766 61.8617 79.7223 61.6109 80.1164 61.107L81.0024 62.1058C80.7298 62.489 80.3613 62.7884 79.8972 63.004C79.433 63.2154 78.9191 63.3201 78.3555 63.3183ZM78.1672 57.7562C77.8081 57.755 77.5155 57.8751 77.2892 58.1166C77.0671 58.358 76.924 58.7041 76.8599 59.1548L79.3775 59.1631L79.378 59.0191C79.371 58.6182 79.2635 58.3089 79.0554 58.0911C78.8474 57.8691 78.5513 57.7575 78.1672 57.7562ZM89.5044 61.0943L91.2922 56.4594L93.5593 56.4669L93.5369 63.2432L91.7269 63.2372L91.7407 59.0788L90.1049 63.2319L88.8899 63.2279L87.3127 59.133L87.2991 63.2226L85.4892 63.2166L85.5116 56.4403L87.76 56.4477L89.5044 61.0943ZM100.99 63.2679L99.1734 63.2619L99.182 60.6566L96.9336 60.6491L96.925 63.2545L95.1151 63.2485L95.1375 56.4721L96.9474 56.4781L96.9385 59.1962L99.1868 59.2036L99.1958 56.4856L101.012 56.4916L100.99 63.2679ZM105.511 63.4081C104.517 63.4048 103.708 63.0974 103.084 62.4857C102.464 61.8741 102.155 61.061 102.159 60.0464L102.159 59.8711C102.162 59.1905 102.295 58.5834 102.56 58.0499C102.825 57.5122 103.198 57.1 103.679 56.8135C104.164 56.5229 104.716 56.3786 105.334 56.3806C106.261 56.3837 106.988 56.6784 107.517 57.2646C108.049 57.8509 108.313 58.6806 108.31 59.7536L108.307 60.4926L103.992 60.4784C104.049 60.9211 104.224 61.2766 104.515 61.5448C104.811 61.813 105.184 61.9478 105.635 61.9493C106.332 61.9516 106.878 61.7008 107.272 61.1969L108.158 62.1956C107.885 62.5788 107.517 62.8782 107.053 63.0938C106.588 63.3052 106.075 63.41 105.511 63.4081ZM105.323 57.8461C104.964 57.8449 104.671 57.965 104.445 58.2064C104.223 58.4479 104.079 58.7939 104.015 59.2446L106.533 59.253L106.533 59.1089C106.526 58.7081 106.419 58.3988 106.211 58.181C106.003 57.959 105.707 57.8474 105.323 57.8461Z" fill="black"/>
<path d="M26.3299 154.902L28.215 154.908L28.1848 164.027L26.2997 164.021L26.3197 157.965L22.6485 164.009L20.7697 164.002L20.7998 154.884L22.6787 154.89L22.6586 160.959L26.3299 154.902ZM35.7226 157.276L35.7001 164.052L33.8902 164.046L33.9078 158.735L32.3108 158.73L32.1911 160.821C32.1164 161.936 31.8945 162.747 31.5254 163.255C31.1563 163.763 30.6085 164.022 29.882 164.033L29.2683 164.031L29.2543 162.559L29.4799 162.541C29.8056 162.517 30.0442 162.325 30.1957 161.967C30.3472 161.608 30.4432 160.997 30.4836 160.133L30.6184 157.259L35.7226 157.276ZM41.2025 157.294L43.0124 157.3L42.99 164.076L41.1801 164.07L41.1939 159.886L38.9129 164.062L37.0967 164.056L37.1192 157.28L38.9354 157.286L38.9215 161.463L41.2025 157.294ZM53.4614 164.111L51.6452 164.105L51.6627 158.794L49.3956 158.786L49.378 164.097L47.5681 164.091L47.5905 157.315L53.4838 157.334L53.4614 164.111ZM54.575 160.663C54.5773 159.991 54.7087 159.393 54.9693 158.867C55.2299 158.342 55.6028 157.936 56.0881 157.65C56.5775 157.363 57.1437 157.221 57.7867 157.223C58.7011 157.226 59.4454 157.508 60.0198 158.07C60.5983 158.631 60.9193 159.392 60.9829 160.353L60.9939 160.816C60.9905 161.856 60.6976 162.69 60.1151 163.318C59.5327 163.943 58.753 164.253 57.776 164.25C56.799 164.247 56.0193 163.931 55.4368 163.303C54.8585 162.675 54.5712 161.822 54.5748 160.745L54.575 160.663ZM56.3845 160.801C56.3824 161.444 56.5019 161.937 56.7429 162.28C56.9839 162.619 57.3299 162.789 57.7808 162.791C58.2192 162.792 58.5621 162.626 58.8096 162.293C59.057 161.956 59.182 161.418 59.1844 160.679C59.1865 160.048 59.065 159.559 58.8198 159.212C58.5746 158.865 58.2286 158.69 57.7819 158.689C57.3393 158.687 56.9964 158.859 56.7531 159.205C56.5098 159.547 56.3869 160.079 56.3845 160.801ZM65.6708 159.372C65.6716 159.134 65.5929 158.951 65.4346 158.821C65.2806 158.686 65.0595 158.619 64.7714 158.618C64.475 158.617 64.2326 158.679 64.0443 158.803C63.8602 158.924 63.7678 159.097 63.7671 159.322L61.9571 159.316C61.9591 158.703 62.2155 158.204 62.7261 157.822C63.2368 157.44 63.8887 157.25 64.682 157.252C65.5546 157.255 66.2388 157.429 66.7345 157.773C67.2344 158.117 67.4833 158.604 67.4812 159.234C67.4802 159.535 67.3874 159.812 67.2029 160.066C67.0225 160.316 66.7672 160.516 66.4368 160.665C67.2084 160.939 67.5928 161.464 67.5903 162.241C67.5882 162.863 67.3193 163.359 66.7837 163.729C66.2522 164.094 65.5439 164.276 64.6588 164.273C63.8363 164.27 63.1605 164.076 62.6316 163.69C62.1026 163.304 61.8392 162.786 61.8413 162.134L63.6513 162.14C63.6505 162.37 63.7522 162.556 63.9563 162.699C64.1604 162.841 64.4274 162.913 64.7572 162.914C65.0787 162.915 65.3295 162.841 65.5095 162.691C65.6895 162.542 65.78 162.346 65.7808 162.103C65.7817 161.807 65.6968 161.596 65.5261 161.47C65.3553 161.34 65.0988 161.274 64.7564 161.273L63.7731 161.27L63.777 160.093L64.8229 160.096C65.3866 160.081 65.6692 159.84 65.6708 159.372ZM68.8052 164.161L68.8276 157.385L71.6584 157.394C72.5811 157.397 73.2882 157.563 73.7798 157.89C74.2714 158.217 74.5162 158.686 74.5142 159.295C74.5132 159.608 74.4078 159.89 74.1983 160.14C73.9929 160.385 73.6916 160.574 73.2945 160.707C73.7785 160.8 74.1579 160.983 74.4326 161.255C74.7114 161.523 74.8502 161.854 74.8489 162.246C74.8468 162.877 74.6072 163.356 74.1302 163.684C73.6573 164.013 72.9699 164.175 72.0681 164.172L68.8052 164.161ZM70.6244 161.355L70.6199 162.721L72.0791 162.726C72.7179 162.728 73.0381 162.505 73.0395 162.059C73.041 161.603 72.737 161.371 72.1275 161.36L70.6244 161.355ZM70.6284 160.14L71.7495 160.144C72.3841 160.138 72.7021 159.934 72.7034 159.534C72.7043 159.287 72.6172 159.112 72.4421 159.007C72.2713 158.902 72.0084 158.849 71.6536 158.847L70.6327 158.844L70.6284 160.14ZM75.6806 160.733C75.6828 160.061 75.8142 159.462 76.0748 158.937C76.3354 158.412 76.7084 158.006 77.1936 157.72C77.6831 157.433 78.2493 157.291 78.8923 157.293C79.8066 157.296 80.551 157.578 81.1253 158.14C81.7038 158.701 82.0249 159.462 82.0885 160.423L82.0995 160.886C82.0961 161.926 81.8031 162.76 81.2207 163.388C80.6383 164.013 79.8585 164.323 78.8816 164.32C77.9046 164.317 77.1248 164.001 76.5424 163.373C75.9641 162.745 75.6767 161.892 75.6803 160.815L75.6806 160.733ZM77.4901 160.871C77.488 161.514 77.6074 162.007 77.8484 162.35C78.0895 162.689 78.4355 162.859 78.8864 162.861C79.3248 162.862 79.6677 162.696 79.9151 162.363C80.1626 162.026 80.2875 161.488 80.29 160.749C80.2921 160.118 80.1705 159.629 79.9253 159.282C79.6801 158.935 79.3342 158.76 78.8874 158.759C78.4449 158.757 78.1019 158.929 77.8586 159.275C77.6153 159.617 77.4925 160.149 77.4901 160.871ZM89.0778 164.228L87.2616 164.222L87.2702 161.617L85.0218 161.61L85.0132 164.215L83.2033 164.209L83.2257 157.433L85.0357 157.439L85.0267 160.157L87.275 160.164L87.284 157.446L89.1002 157.452L89.0778 164.228ZM94.5864 157.47L96.3963 157.476L96.3739 164.253L94.564 164.247L94.5778 160.063L92.2968 164.239L90.4806 164.233L90.5031 157.457L92.3193 157.463L92.3054 161.64L94.5864 157.47ZM103.4 158.952L101.226 158.945L101.209 164.269L99.3926 164.263L99.4102 158.939L97.2746 158.932L97.2794 157.479L103.404 157.499L103.4 158.952ZM107.014 164.413C106.02 164.41 105.211 164.102 104.587 163.491C103.967 162.879 103.659 162.066 103.662 161.051L103.662 160.876C103.665 160.195 103.798 159.588 104.063 159.055C104.328 158.517 104.701 158.105 105.182 157.819C105.667 157.528 106.219 157.384 106.837 157.386C107.764 157.389 108.491 157.683 109.02 158.27C109.552 158.856 109.817 159.686 109.813 160.759L109.811 161.498L105.496 161.483C105.552 161.926 105.727 162.282 106.018 162.55C106.314 162.818 106.687 162.953 107.138 162.954C107.835 162.957 108.381 162.706 108.775 162.202L109.661 163.201C109.388 163.584 109.02 163.883 108.556 164.099C108.091 164.31 107.578 164.415 107.014 164.413ZM106.826 158.851C106.467 158.85 106.174 158.97 105.948 159.211C105.726 159.453 105.582 159.799 105.518 160.25L108.036 160.258L108.036 160.114C108.029 159.713 107.922 159.404 107.714 159.186C107.506 158.964 107.21 158.852 106.826 158.851ZM110.925 163.411C110.926 163.123 111.023 162.89 111.216 162.711C111.413 162.532 111.657 162.443 111.949 162.444C112.246 162.445 112.49 162.536 112.681 162.716C112.877 162.896 112.974 163.13 112.973 163.418C112.972 163.702 112.875 163.934 112.683 164.112C112.49 164.287 112.244 164.374 111.943 164.373C111.646 164.372 111.403 164.284 111.211 164.108C111.02 163.927 110.924 163.695 110.925 163.411ZM110.942 158.282C110.943 157.994 111.04 157.761 111.233 157.582C111.429 157.403 111.674 157.314 111.966 157.315C112.263 157.316 112.507 157.406 112.698 157.587C112.894 157.767 112.991 158.001 112.99 158.289C112.989 158.573 112.892 158.804 112.7 158.983C112.507 159.158 112.261 159.245 111.96 159.244C111.663 159.243 111.42 159.154 111.228 158.978C111.037 158.798 110.941 158.566 110.942 158.282Z" fill="black"/>
<path d="M23.0373 178.832C23.0348 179.573 22.8475 180.229 22.4753 180.801C22.1031 181.373 21.5915 181.829 20.9406 182.169C21.68 182.528 22.2653 183.022 22.6964 183.652C23.1276 184.276 23.3417 185.01 23.3389 185.856C23.3344 187.211 22.8697 188.282 21.9448 189.069C21.02 189.848 19.7645 190.235 18.1784 190.23C16.5924 190.225 15.336 189.826 14.4093 189.033C13.4827 188.24 13.0216 187.17 13.026 185.821C13.0288 184.976 13.2479 184.24 13.6831 183.612C14.1184 182.985 14.7035 182.498 15.4383 182.151C14.7896 181.806 14.2811 181.347 13.9126 180.773C13.5512 180.199 13.3717 179.541 13.3742 178.8C13.3785 177.501 13.8151 176.468 14.684 175.703C15.553 174.93 16.7316 174.546 18.2198 174.551C19.7011 174.556 20.8736 174.944 21.7375 175.715C22.6084 176.48 23.0416 177.519 23.0373 178.832ZM20.3003 185.625C20.3025 184.962 20.1121 184.43 19.7291 184.03C19.3462 183.631 18.8298 183.43 18.18 183.428C17.5372 183.426 17.023 183.623 16.6374 184.02C16.2518 184.41 16.0579 184.941 16.0556 185.611C16.0535 186.261 16.2404 186.786 16.6164 187.185C16.9924 187.585 17.5157 187.786 18.1865 187.788C18.8433 187.79 19.3575 187.6 19.7291 187.217C20.1076 186.834 20.298 186.303 20.3003 185.625ZM20.0079 178.969C20.0099 178.375 19.8542 177.9 19.541 177.542C19.2278 177.178 18.7847 176.995 18.2118 176.993C17.6458 176.991 17.205 177.164 16.8895 177.513C16.5739 177.861 16.4151 178.342 16.4131 178.957C16.411 179.565 16.5666 180.055 16.8798 180.426C17.193 180.797 17.6361 180.984 18.209 180.986C18.782 180.988 19.2228 180.804 19.5314 180.435C19.8471 180.066 20.0059 179.577 20.0079 178.969ZM25.6618 183.84C25.6671 182.24 25.8853 180.718 26.3163 179.273C26.7473 177.828 27.3803 176.552 28.2155 175.443C29.0506 174.328 29.9545 173.556 30.9272 173.126L31.5087 174.763C30.4861 175.514 29.6857 176.678 29.1075 178.255C28.5293 179.832 28.2368 181.676 28.2298 183.786L28.2287 184.111C28.2217 186.228 28.4986 188.081 29.0593 189.668C29.62 191.256 30.4161 192.443 31.4476 193.229L30.8553 194.831C29.9065 194.402 29.0216 193.644 28.2008 192.558C27.3868 191.48 26.7656 190.234 26.3371 188.821C25.9085 187.408 25.6829 185.933 25.66 184.396L25.6618 183.84ZM40.0304 183.993C39.2383 184.766 38.3147 185.15 37.2596 185.147C35.9111 185.143 34.8332 184.678 34.0257 183.753C33.2183 182.821 32.8172 181.569 32.8224 179.997C32.8257 178.998 33.0453 178.083 33.4813 177.253C33.9242 176.416 34.5378 175.768 35.3218 175.31C36.1059 174.844 36.9871 174.613 37.9653 174.616C38.9714 174.62 39.8649 174.874 40.6458 175.38C41.4267 175.885 42.0322 176.611 42.4622 177.555C42.8923 178.5 43.1088 179.58 43.1118 180.796L43.1081 181.917C43.0997 184.461 42.4607 186.457 41.1913 187.906C39.9218 189.355 38.127 190.125 35.807 190.215L35.0629 190.223L35.0712 187.697L35.742 187.689C38.3765 187.579 39.806 186.347 40.0304 183.993ZM38.0114 182.833C38.5005 182.835 38.9202 182.71 39.2704 182.46C39.6275 182.21 39.8975 181.907 40.0804 181.551L40.0845 180.304C40.0879 179.277 39.8949 178.48 39.5055 177.912C39.1161 177.345 38.593 177.06 37.9362 177.058C37.3283 177.056 36.8278 177.334 36.4347 177.892C36.0416 178.442 35.8437 179.137 35.8409 179.975C35.8382 180.807 36.0245 181.492 36.4001 182.031C36.7826 182.564 37.3197 182.831 38.0114 182.833ZM53.5183 174.72L53.51 177.214L53.2166 177.214C51.847 177.23 50.7419 177.583 49.9012 178.272C49.0674 178.961 48.5647 179.92 48.3929 181.149C49.2061 180.327 50.2311 179.918 51.4678 179.922C52.7954 179.927 53.8488 180.405 54.6282 181.358C55.4076 182.311 55.7948 183.563 55.7896 185.114C55.7864 186.106 55.5668 187.003 55.1309 187.805C54.7021 188.607 54.0921 189.231 53.3011 189.675C52.5171 190.12 51.629 190.341 50.6368 190.337C49.0298 190.332 47.732 189.769 46.7436 188.648C45.7621 187.526 45.2745 186.033 45.2806 184.167L45.2842 183.077C45.2897 181.421 45.6055 179.962 46.2315 178.7C46.8645 177.43 47.7656 176.451 48.9348 175.763C50.1109 175.069 51.4711 174.72 53.0152 174.718L53.5183 174.72ZM50.5375 182.351C50.0484 182.349 49.6043 182.477 49.2052 182.734C48.8061 182.984 48.5115 183.319 48.3215 183.737L48.3184 184.66C48.315 185.673 48.5116 186.466 48.9079 187.041C49.3043 187.608 49.8623 187.893 50.582 187.895C51.2318 187.897 51.7567 187.644 52.1566 187.135C52.5636 186.62 52.7684 185.953 52.7711 185.135C52.7739 184.304 52.5735 183.633 52.1699 183.121C51.7664 182.61 51.2222 182.353 50.5375 182.351ZM67.5588 178.98C67.5564 179.72 67.369 180.377 66.9968 180.948C66.6246 181.52 66.113 181.976 65.4621 182.316C66.2016 182.675 66.7868 183.17 67.218 183.8C67.6491 184.423 67.8633 185.157 67.8605 186.003C67.856 187.358 67.3913 188.429 66.4664 189.216C65.5415 189.995 64.286 190.382 62.7 190.377C61.1139 190.372 59.8575 189.973 58.9309 189.18C58.0042 188.388 57.5431 187.317 57.5476 185.969C57.5504 185.123 57.7694 184.387 58.2047 183.76C58.64 183.132 59.225 182.645 59.9598 182.298C59.3111 181.953 58.8026 181.494 58.4342 180.92C58.0727 180.346 57.8933 179.688 57.8957 178.948C57.9 177.648 58.3366 176.616 59.2056 175.85C60.0745 175.077 61.2531 174.693 62.7414 174.698C64.2226 174.703 65.3952 175.091 66.259 175.863C67.1299 176.627 67.5632 177.666 67.5588 178.98ZM64.8218 185.773C64.824 185.109 64.6336 184.577 64.2507 184.178C63.8677 183.778 63.3513 183.577 62.7015 183.575C62.0587 183.573 61.5445 183.771 61.1589 184.168C60.7733 184.558 60.5794 185.088 60.5772 185.759C60.575 186.408 60.762 186.933 61.1379 187.333C61.5139 187.732 62.0373 187.933 62.708 187.935C63.3648 187.937 63.879 187.747 64.2506 187.364C64.6292 186.981 64.8196 186.45 64.8218 185.773ZM64.5294 179.117C64.5314 178.523 64.3758 178.047 64.0625 177.69C63.7493 177.325 63.3062 177.142 62.7333 177.14C62.1673 177.138 61.7266 177.312 61.411 177.66C61.0954 178.008 60.9366 178.49 60.9346 179.105C60.9326 179.713 61.0882 180.202 61.4014 180.573C61.7146 180.945 62.1576 181.131 62.7306 181.133C63.3035 181.135 63.7443 180.952 64.053 180.582C64.3686 180.213 64.5274 179.724 64.5294 179.117ZM75.2657 184.246C75.2604 185.825 75.0283 187.344 74.5693 188.802C74.1103 190.261 73.4528 191.548 72.5967 192.663C71.7405 193.778 70.8262 194.544 69.8536 194.96L69.272 193.355C70.2666 192.61 71.053 191.46 71.6311 189.904C72.2092 188.347 72.5121 186.556 72.5397 184.53L72.5416 183.975C72.5485 181.886 72.2681 180.043 71.7004 178.449C71.1398 176.854 70.3507 175.656 69.3332 174.856L69.9254 173.255C70.8743 173.67 71.7662 174.421 72.601 175.506C73.4429 176.592 74.092 177.856 74.5484 179.296C75.0118 180.737 75.2514 182.23 75.2672 183.774L75.2657 184.246ZM91.7928 184.52L93.5221 184.526L93.514 186.968L91.7847 186.962L91.7738 190.264L88.7449 190.254L88.7559 186.952L82.4989 186.932L82.369 185.024L88.764 174.994L91.8243 175.004L91.7928 184.52ZM85.3892 184.499L88.7639 184.51L88.7818 179.123L88.5815 179.469L85.3892 184.499ZM104.118 184.561L105.847 184.567L105.839 187.009L104.11 187.003L104.099 190.305L101.07 190.295L101.081 186.993L94.8241 186.973L94.6942 185.065L101.089 175.035L104.149 175.045L104.118 184.561ZM97.7144 184.54L101.089 184.551L101.107 179.164L100.907 179.509L97.7144 184.54ZM115.731 174.926L115.723 177.42L115.429 177.419C114.06 177.436 112.955 177.789 112.114 178.477C111.28 179.166 110.777 180.126 110.606 181.355C111.419 180.533 112.444 180.124 113.681 180.128C115.008 180.133 116.062 180.611 116.841 181.564C117.62 182.517 118.008 183.769 118.002 185.32C117.999 186.312 117.78 187.209 117.344 188.011C116.915 188.813 116.305 189.437 115.514 189.881C114.73 190.326 113.842 190.546 112.85 190.543C111.243 190.538 109.945 189.975 108.956 188.853C107.975 187.732 107.487 186.239 107.493 184.373L107.497 183.283C107.502 181.627 107.818 180.168 108.444 178.906C109.077 177.636 109.978 176.657 111.148 175.969C112.324 175.275 113.684 174.926 115.228 174.924L115.731 174.926ZM112.75 182.557C112.261 182.555 111.817 182.683 111.418 182.94C111.019 183.19 110.724 183.525 110.534 183.943L110.531 184.865C110.528 185.879 110.724 186.672 111.121 187.247C111.517 187.814 112.075 188.099 112.795 188.101C113.445 188.103 113.969 187.85 114.369 187.341C114.776 186.825 114.981 186.159 114.984 185.341C114.987 184.51 114.786 183.838 114.383 183.327C113.979 182.816 113.435 182.559 112.75 182.557ZM125.822 185.063L119.921 185.043L119.929 182.601L125.83 182.621L125.822 185.063ZM137.09 184.67L138.819 184.676L138.811 187.118L137.082 187.112L137.071 190.414L134.042 190.404L134.053 187.102L127.796 187.082L127.666 185.174L134.061 175.144L137.121 175.154L137.09 184.67ZM130.686 184.649L134.061 184.66L134.079 179.273L133.879 179.619L130.686 184.649ZM147.54 184.349C146.748 185.122 145.825 185.506 144.77 185.503C143.421 185.498 142.343 185.034 141.536 184.109C140.728 183.177 140.327 181.925 140.332 180.353C140.336 179.353 140.555 178.439 140.991 177.609C141.434 176.772 142.048 176.124 142.832 175.665C143.616 175.2 144.497 174.969 145.475 174.972C146.481 174.975 147.375 175.23 148.156 175.736C148.937 176.241 149.542 176.966 149.972 177.911C150.402 178.856 150.619 179.936 150.622 181.152L150.618 182.273C150.61 184.816 149.971 186.813 148.701 188.262C147.432 189.711 145.637 190.481 143.317 190.571L142.573 190.579L142.581 188.053L143.252 188.045C145.886 187.935 147.316 186.703 147.54 184.349ZM145.521 183.189C146.01 183.191 146.43 183.066 146.78 182.816C147.137 182.566 147.407 182.263 147.59 181.907L147.594 180.66C147.598 179.632 147.405 178.835 147.015 178.268C146.626 177.701 146.103 177.416 145.446 177.414C144.838 177.412 144.338 177.69 143.945 178.247C143.551 178.798 143.354 179.493 143.351 180.331C143.348 181.163 143.534 181.848 143.91 182.387C144.292 182.919 144.83 183.187 145.521 183.189ZM158.794 185.172L152.893 185.152L152.901 182.71L158.802 182.73L158.794 185.172ZM170.062 184.78L171.791 184.785L171.783 187.227L170.054 187.221L170.043 190.523L167.014 190.513L167.025 187.211L160.768 187.191L160.638 185.283L167.033 175.253L170.093 175.263L170.062 184.78ZM163.658 184.758L167.033 184.769L167.051 179.382L166.851 179.728L163.658 184.758ZM182.387 184.82L184.116 184.826L184.108 187.268L182.379 187.262L182.368 190.564L179.339 190.554L179.35 187.252L173.093 187.232L172.963 185.324L179.358 175.294L182.419 175.304L182.387 184.82ZM175.983 184.799L179.358 184.81L179.376 179.423L179.176 179.768L175.983 184.799Z" fill="white"/>
<rect y="16.3828" width="306.361" height="28.9778" transform="rotate(-0.071594 0 16.3828)" fill="#0C6F10"/>
<g filter="url(#filter0_d)">
<path d="M32.1993 31.0298H25.4493V35.6002H33.3712V38.4244H21.9337V21.3619H33.3478V24.2095H25.4493V28.2759H32.1993V31.0298ZM42.2901 35.9283C42.9151 35.9283 43.4229 35.7564 43.8136 35.4127C44.2042 35.0689 44.4073 34.6119 44.4229 34.0416H47.5987C47.5909 34.9009 47.3565 35.69 46.8956 36.4088C46.4347 37.1197 45.8018 37.6744 44.9972 38.0728C44.2003 38.4634 43.3175 38.6588 42.3487 38.6588C40.5362 38.6588 39.1065 38.0845 38.0597 36.9361C37.0128 35.7798 36.4893 34.1861 36.4893 32.1548V31.9322C36.4893 29.9791 37.0089 28.4205 38.0479 27.2564C39.087 26.0923 40.5128 25.5103 42.3253 25.5103C43.9112 25.5103 45.1807 25.9634 46.1339 26.8697C47.0948 27.7681 47.5831 28.9673 47.5987 30.4673H44.4229C44.4073 29.8111 44.2042 29.2798 43.8136 28.8736C43.4229 28.4595 42.9073 28.2525 42.2667 28.2525C41.4776 28.2525 40.88 28.5416 40.4737 29.1197C40.0753 29.69 39.8761 30.6197 39.8761 31.9088V32.2603C39.8761 33.565 40.0753 34.5025 40.4737 35.0728C40.8722 35.6431 41.4776 35.9283 42.2901 35.9283ZM62.5997 25.7447V38.4244H59.2129V28.4869H56.2247L56.0137 32.4009C55.8809 34.4869 55.4707 36.0064 54.7832 36.9595C54.0957 37.9127 53.0723 38.4009 51.7129 38.4244H50.5645L50.5293 35.6705L50.9512 35.6353C51.5606 35.5884 52.0059 35.2291 52.2872 34.5572C52.5684 33.8853 52.7442 32.7408 52.8145 31.1236L53.0489 25.7447H62.5997ZM74.8936 25.7447H78.2803V38.4244H74.8936V30.5963L70.6514 38.4244H67.2529V25.7447H70.6514V33.5611L74.8936 25.7447ZM91.1493 38.4244V21.3619H97.1259C99.1962 21.3619 100.767 21.7603 101.837 22.5572C102.907 23.3463 103.442 24.5064 103.442 26.0377C103.442 26.8736 103.227 27.6119 102.798 28.2525C102.368 28.8853 101.77 29.3502 101.005 29.647C101.88 29.8658 102.567 30.3072 103.067 30.9713C103.575 31.6353 103.829 32.4478 103.829 33.4088C103.829 35.0494 103.306 36.2916 102.259 37.1353C101.212 37.9791 99.7197 38.4088 97.7822 38.4244H91.1493ZM94.665 30.9947V35.6002H97.6767C98.5048 35.6002 99.1493 35.4048 99.6103 35.0142C100.079 34.6158 100.313 34.0689 100.313 33.3736C100.313 31.8111 99.5048 31.0181 97.8876 30.9947H94.665ZM94.665 28.5103H97.2665C99.04 28.4791 99.9267 27.772 99.9267 26.3892C99.9267 25.6158 99.7001 25.0611 99.247 24.7252C98.8017 24.3814 98.0947 24.2095 97.1259 24.2095H94.665V28.5103ZM115.642 38.4244C115.486 38.1197 115.373 37.7408 115.303 37.2877C114.482 38.2017 113.416 38.6588 112.103 38.6588C110.861 38.6588 109.83 38.2994 109.01 37.5806C108.197 36.8619 107.791 35.9556 107.791 34.8619C107.791 33.5181 108.287 32.4869 109.279 31.7681C110.279 31.0494 111.721 30.6861 113.603 30.6783H115.162V29.9517C115.162 29.3658 115.01 28.897 114.705 28.5455C114.408 28.1939 113.935 28.0181 113.287 28.0181C112.717 28.0181 112.267 28.1548 111.939 28.4283C111.619 28.7017 111.459 29.0767 111.459 29.5533H108.072C108.072 28.8189 108.299 28.1392 108.752 27.5142C109.205 26.8892 109.846 26.4009 110.674 26.0494C111.502 25.69 112.432 25.5103 113.463 25.5103C115.025 25.5103 116.264 25.9048 117.178 26.6939C118.099 27.4752 118.56 28.5767 118.56 29.9986V35.4947C118.568 36.6978 118.736 37.608 119.064 38.2252V38.4244H115.642ZM112.842 36.0689C113.342 36.0689 113.803 35.9595 114.224 35.7408C114.646 35.5142 114.959 35.2134 115.162 34.8384V32.6588H113.896C112.201 32.6588 111.299 33.2447 111.189 34.4166L111.178 34.6158C111.178 35.0377 111.326 35.3853 111.623 35.6588C111.92 35.9322 112.326 36.0689 112.842 36.0689ZM130.925 34.4283L134.241 25.7447H138.483V38.4244H135.097V30.6431L132.061 38.4244H129.788L126.811 30.772V38.4244H123.425V25.7447H127.632L130.925 34.4283ZM159.134 25.7447H162.52V38.4244H159.134V30.5963L154.891 38.4244H151.493V25.7447H154.891V33.5611L159.134 25.7447ZM178.142 38.4244H174.744V33.5494H170.537V38.4244H167.15V25.7447H170.537V30.8306H174.744V25.7447H178.142V38.4244ZM193.331 28.4634H189.264V38.4244H185.866V28.4634H181.87V25.7447H193.331V28.4634ZM202.168 38.6588C200.308 38.6588 198.793 38.0884 197.621 36.9478C196.457 35.8072 195.875 34.2877 195.875 32.3892V32.0611C195.875 30.7877 196.121 29.6509 196.613 28.6509C197.105 27.6431 197.8 26.8697 198.699 26.3306C199.605 25.7838 200.636 25.5103 201.793 25.5103C203.527 25.5103 204.89 26.0572 205.882 27.1509C206.882 28.2447 207.382 29.7955 207.382 31.8033V33.1861H199.308C199.418 34.0142 199.746 34.6783 200.293 35.1783C200.847 35.6783 201.547 35.9283 202.39 35.9283C203.695 35.9283 204.714 35.4556 205.449 34.5103L207.113 36.3736C206.605 37.0923 205.918 37.6548 205.05 38.0611C204.183 38.4595 203.222 38.6588 202.168 38.6588ZM201.781 28.2525C201.109 28.2525 200.562 28.4791 200.14 28.9322C199.726 29.3853 199.461 30.0338 199.343 30.8775H204.054V30.608C204.039 29.858 203.836 29.2798 203.445 28.8736C203.054 28.4595 202.5 28.2525 201.781 28.2525ZM222.77 32.2017C222.77 34.1548 222.325 35.7213 221.434 36.9009C220.551 38.0728 219.356 38.6588 217.848 38.6588C216.567 38.6588 215.532 38.2134 214.743 37.3228V43.2994H211.356V25.7447H214.497L214.614 26.9869C215.434 26.0025 216.505 25.5103 217.825 25.5103C219.387 25.5103 220.602 26.0884 221.469 27.2447C222.337 28.4009 222.77 29.9947 222.77 32.0259V32.2017ZM219.383 31.9556C219.383 30.7759 219.172 29.8658 218.751 29.2252C218.337 28.5845 217.731 28.2642 216.934 28.2642C215.872 28.2642 215.141 28.6705 214.743 29.483V34.6744C215.157 35.5103 215.895 35.9283 216.958 35.9283C218.575 35.9283 219.383 34.6041 219.383 31.9556ZM232.755 38.6588C230.896 38.6588 229.38 38.0884 228.209 36.9478C227.044 35.8072 226.462 34.2877 226.462 32.3892V32.0611C226.462 30.7877 226.709 29.6509 227.201 28.6509C227.693 27.6431 228.388 26.8697 229.287 26.3306C230.193 25.7838 231.224 25.5103 232.38 25.5103C234.115 25.5103 235.478 26.0572 236.47 27.1509C237.47 28.2447 237.97 29.7955 237.97 31.8033V33.1861H229.896C230.005 34.0142 230.334 34.6783 230.88 35.1783C231.435 35.6783 232.134 35.9283 232.978 35.9283C234.283 35.9283 235.302 35.4556 236.037 34.5103L237.701 36.3736C237.193 37.0923 236.505 37.6548 235.638 38.0611C234.771 38.4595 233.81 38.6588 232.755 38.6588ZM232.369 28.2525C231.697 28.2525 231.15 28.4791 230.728 28.9322C230.314 29.3853 230.048 30.0338 229.931 30.8775H234.642V30.608C234.627 29.858 234.423 29.2798 234.033 28.8736C233.642 28.4595 233.087 28.2525 232.369 28.2525ZM247.217 35.9283C247.842 35.9283 248.35 35.7564 248.741 35.4127C249.131 35.0689 249.335 34.6119 249.35 34.0416H252.526C252.518 34.9009 252.284 35.69 251.823 36.4088C251.362 37.1197 250.729 37.6744 249.924 38.0728C249.127 38.4634 248.245 38.6588 247.276 38.6588C245.463 38.6588 244.034 38.0845 242.987 36.9361C241.94 35.7798 241.417 34.1861 241.417 32.1548V31.9322C241.417 29.9791 241.936 28.4205 242.975 27.2564C244.014 26.0923 245.44 25.5103 247.252 25.5103C248.838 25.5103 250.108 25.9634 251.061 26.8697C252.022 27.7681 252.51 28.9673 252.526 30.4673H249.35C249.335 29.8111 249.131 29.2798 248.741 28.8736C248.35 28.4595 247.835 28.2525 247.194 28.2525C246.405 28.2525 245.807 28.5416 245.401 29.1197C245.002 29.69 244.803 30.6197 244.803 31.9088V32.2603C244.803 33.565 245.002 34.5025 245.401 35.0728C245.799 35.6431 246.405 35.9283 247.217 35.9283ZM267.492 38.4244H264.093V33.5494H259.886V38.4244H256.499V25.7447H259.886V30.8306H264.093V25.7447H267.492V38.4244ZM271.629 31.9673C271.629 30.7095 271.872 29.5884 272.356 28.6041C272.84 27.6197 273.536 26.858 274.442 26.3189C275.356 25.7798 276.414 25.5103 277.618 25.5103C279.329 25.5103 280.723 26.0338 281.801 27.0806C282.887 28.1275 283.493 29.5494 283.618 31.3463L283.641 32.2134C283.641 34.1588 283.098 35.7213 282.012 36.9009C280.926 38.0728 279.469 38.6588 277.641 38.6588C275.813 38.6588 274.352 38.0728 273.258 36.9009C272.172 35.7291 271.629 34.1353 271.629 32.1197V31.9673ZM275.016 32.2134C275.016 33.4166 275.243 34.3384 275.696 34.9791C276.149 35.6119 276.797 35.9283 277.641 35.9283C278.461 35.9283 279.102 35.6158 279.563 34.9908C280.024 34.358 280.254 33.3502 280.254 31.9673C280.254 30.7877 280.024 29.8736 279.563 29.2252C279.102 28.5767 278.454 28.2525 277.618 28.2525C276.789 28.2525 276.149 28.5767 275.696 29.2252C275.243 29.8658 275.016 30.8619 275.016 32.2134Z" fill="white"/>
</g>
</g>
<defs>
<filter id="filter0_d" x="21.9337" y="21.3619" width="262.707" height="22.9375" filterUnits="userSpaceOnUse" color-interpolation-filters="sRGB">
<feFlood flood-opacity="0" result="BackgroundImageFix"/>
<feColorMatrix in="SourceAlpha" type="matrix" values="0 0 0 0 0 0 0 0 0 0 0 0 0 0 0 0 0 0 127 0"/>
<feOffset dx="1" dy="1"/>
<feColorMatrix type="matrix" values="0 0 0 0 0 0 0 0 0 0 0 0 0 0 0 0 0 0 0.25 0"/>
<feBlend mode="normal" in2="BackgroundImageFix" result="effect1_dropShadow"/>
<feBlend mode="normal" in="SourceGraphic" in2="effect1_dropShadow" result="shape"/>
</filter>
<clipPath id="clip0">
<rect width="304" height="230" fill="white"/>
</clipPath>
</defs>
</svg>
